<svg xmlns="http://www.w3.org/2000/svg" xmlns:xlink="http://www.w3.org/1999/xlink" width="807.638" height="568.72" viewBox="0 0 807.638 568.72">
  <defs>
    <clipPath id="clip-path">
      <path id="Trazado_7194" data-name="Trazado 7194" d="M783.61,597.788c-13.378,10.578-502.494,9.483-563.016,9.483-25.069,0-47.651,7.99-65.186-12.6-18.291-21.483-32.6-52.544-46.1-77.912C81.442,464.362,58.932,406.986,55.651,345.547c-1.258-23.553.635-48.358,11.878-68.395s33.9-33.641,54.252-26.716c19.359,6.588,37.017,29.938,55.515,20.805,12.447-6.144,15.895-23.52,18.18-38.406,8.564-55.787,24.3-113.1,60.689-152.8S354.442,24.876,395.493,58.53c22.645,18.567,35.456,48.258,44.973,77.641s16.822,60.139,32.1,86.368,40.891,47.78,69.027,46.259c24.7-1.334,45.8-19.667,63.5-38.811s34.66-40.562,57.512-51.039,53.961-5.461,65.3,18.9c9.865,21.2,1.325,46.626-5.985,69.058-8.5,26.1-15.3,53.9-11.664,81.359s20.031,54.426,44.3,61.259c22.189,6.248,46.184-4.923,68.291,1.676,32.81,9.794,47.049,56.511,36.877,92.442S822.38,566.072,795.05,588.45l-.008.006C790.665,592.04,786.966,595.134,783.61,597.788Z" transform="translate(-55.313 -40.077)" fill="none"/>
    </clipPath>
    <linearGradient id="linear-gradient" x1="1.005" y1="0.422" x2="0.23" y2="0.563" gradientUnits="objectBoundingBox">
      <stop offset="0.395" stop-color="#ffdcec"/>
      <stop offset="0.518" stop-color="#f6daee"/>
      <stop offset="0.714" stop-color="#dfd7f5"/>
      <stop offset="0.93" stop-color="#bed2ff"/>
    </linearGradient>
  </defs>
  <g id="Grupo_1075" data-name="Grupo 1075" transform="translate(-55.313 -40.077)">
    <g id="Grupo_1074" data-name="Grupo 1074" transform="translate(55.313 40.077)" clip-path="url(#clip-path)">
      <path id="Trazado_7052" data-name="Trazado 7052" d="M783.61,597.788c-13.378,10.578-502.494,9.483-563.016,9.483-25.069,0-47.651,7.99-65.186-12.6-18.291-21.483-32.6-52.544-46.1-77.912C81.442,464.362,58.932,406.986,55.651,345.547c-1.258-23.553.635-48.358,11.878-68.395s33.9-33.641,54.252-26.716c19.359,6.588,37.017,29.938,55.515,20.805,12.447-6.144,15.895-23.52,18.18-38.406,8.564-55.787,24.3-113.1,60.689-152.8S354.442,24.876,395.493,58.53c22.645,18.567,35.456,48.258,44.973,77.641s16.822,60.139,32.1,86.368,40.891,47.78,69.027,46.259c24.7-1.334,45.8-19.667,63.5-38.811s34.66-40.562,57.512-51.039,53.961-5.461,65.3,18.9c9.865,21.2,1.325,46.626-5.985,69.058-8.5,26.1-15.3,53.9-11.664,81.359s20.031,54.426,44.3,61.259c22.189,6.248,46.184-4.923,68.291,1.676,32.81,9.794,47.049,56.511,36.877,92.442S822.38,566.072,795.05,588.45l-.008.006C790.665,592.04,786.966,595.134,783.61,597.788Z" transform="translate(-55.313 -40.077)" fill="url(#linear-gradient)"/>
      <path id="Trazado_7053" data-name="Trazado 7053" d="M262.346,554.884c-4.377-15.467-8.285-32.134-9.461-48.263-1.195-16.372,1.175-33.572,9.465-47.186,7.108-11.672,18.2-20.224,23.672-32.937,7.43-17.276,2.5-38.455-7.355-54.167-5.876-9.364-13.526-17.737-16.679-28.594-1.988-6.847-2.02-14.22-1.282-21.365,2.751-26.65,15.8-51.41,16.031-78.232.219-25.071-12.968-49.688-27.93-67.486-2.305-2.744-4.747-5.586-7.948-6.8s-7.374-.162-8.771,3.252a12.683,12.683,0,0,0-.527,5.356q.354,7.879.707,15.756c.668,14.885-1.664,28.363-9.647,40.429-7.825,11.828-17.806,22.478-21.828,36.837-9.768,34.863,20.429,70.724,14.38,106.609-1.667,9.889-6.008,18.929-9.287,28.311-8.763,25.078-9.9,53.018-5.2,79.4,4.17,23.4,12.795,45.614,24,66Q243.536,553.126,262.346,554.884Z" transform="translate(-17.774 11.626)" fill="#5237b5"/>
      <g id="Grupo_1072" data-name="Grupo 1072" transform="translate(26.6 236.843)">
        <g id="Grupo_1018" data-name="Grupo 1018" transform="translate(434.538)">
          <path id="Trazado_7054" data-name="Trazado 7054" d="M421.829,244.607c4.808.062,9.34,2.475,13.387,5.349,17.055,12.109,28,32.841,33.269,54.517s5.4,44.447,4.755,66.883c-.264,9.248,1.323,43.874-11.305,35.776-8.424-5.4-16.8-32.83-20.994-42.3a237.881,237.881,0,0,1-17.388-59.248C422.772,300.635,418.039,244.558,421.829,244.607Z" transform="translate(-420.376 -195.131)" fill="#b5c1fb"/>
          <path id="Trazado_7055" data-name="Trazado 7055" d="M477.065,393.008c18.457-31.533,44.12-57.837,73.923-75.773.8,12.711-4.175,25.024-10.335,35.783-14.6,25.492-28.273,43.287-48.025,63.624-5.624,5.789-29.258,22.992-30.854,20.044C456.725,427.359,472.386,401,477.065,393.008Z" transform="translate(-409.742 -166.087)" fill="#b5c1fb"/>
          <g id="Grupo_1014" data-name="Grupo 1014" transform="translate(12.309 61.982)">
            <path id="Trazado_7056" data-name="Trazado 7056" d="M454.067,578.053l-2.228-.619a485.977,485.977,0,0,0,9.907-63.605,583.636,583.636,0,0,0,2.087-64.616c-.448-20.8-1.95-42.593-4.463-64.77-2.392-21.115-5.651-42.561-9.686-63.741-3.211-16.85-8-38.82-16.593-59.3-.951-2.266-1.949-4.516-2.97-6.689l2.039-1.176c1.036,2.2,2.05,4.491,3.015,6.791,8.693,20.711,13.521,42.861,16.757,59.843,4.048,21.25,7.318,42.767,9.718,63.95,2.523,22.264,4.03,44.143,4.48,65.029a586.522,586.522,0,0,1-2.1,64.93A488.679,488.679,0,0,1,454.067,578.053Z" transform="translate(-430.121 -253.54)" fill="#31177a"/>
          </g>
          <g id="Grupo_1015" data-name="Grupo 1015" transform="translate(45.564 175.444)">
            <path id="Trazado_7057" data-name="Trazado 7057" d="M457.6,456.368h-.044a1.226,1.226,0,0,1-1.1-1.32c.488-14.021,7.027-30.369,19.436-48.59,17.739-26.046,36.081-52.98,61.13-71.648a1.08,1.08,0,0,1,1.594.347,1.359,1.359,0,0,1-.312,1.767c-24.729,18.428-42.953,45.189-60.577,71.068-12.123,17.8-18.507,33.662-18.975,47.153A1.21,1.21,0,0,1,457.6,456.368Z" transform="translate(-456.447 -334.591)" fill="#31177a"/>
          </g>
          <g id="Grupo_1016" data-name="Grupo 1016" transform="translate(46.096)">
            <path id="Trazado_7058" data-name="Trazado 7058" d="M458.017,462.859a1.086,1.086,0,0,1-.455-.1,1.33,1.33,0,0,1-.6-1.674c10.871-27.98,22.207-61.157,23.845-95.068.354-16.081-.733-32.723-1.784-48.814-.519-7.94-1.055-16.151-1.408-24.158-.931-24.246-.244-55.482,13.436-82.1l.846-1.678,1.064,1.526c4.315,6.193,5.4,7.947,5.35,8.8,9.433,17.868,11.771,37.323,11.937,51.382.241,20.686-3.979,42.281-13.28,67.961-4.521,12.48-9.033,24.712-14.513,37.143a1.412,1.412,0,0,1-.122.22c-3.148,30.746-13.393,60.4-23.261,85.8A1.151,1.151,0,0,1,458.017,462.859ZM491.9,214.522c-12.276,25.544-12.874,55.21-11.984,78.4.35,7.97.885,16.166,1.4,24.091,1.055,16.152,2.146,32.857,1.789,49.1-.047.973-.1,1.942-.164,2.913,4.338-10.338,8.113-20.6,11.9-31.045,9.186-25.359,13.353-46.642,13.116-66.981-.164-13.991-2.525-33.442-12.145-51.1A36.132,36.132,0,0,1,491.9,214.522Z" transform="translate(-456.868 -209.264)" fill="#31177a"/>
          </g>
          <g id="Grupo_1017" data-name="Grupo 1017" transform="translate(70.572 4.124)">
            <path id="Trazado_7059" data-name="Trazado 7059" d="M478.53,372.117l-2.285-.277c.491-5,1.487-11.665,2.54-18.722,1.246-8.348,2.534-16.978,2.979-22.951,1.455-19.524,2.517-39.345,3.155-58.916s.875-39.422.7-59.015l2.3-.025c.176,19.632-.059,39.526-.7,59.133s-1.705,39.471-3.163,59.033c-.452,6.077-1.748,14.76-3,23.156C480,360.554,479.014,367.186,478.53,372.117Z" transform="translate(-476.245 -212.21)" fill="#31177a"/>
          </g>
        </g>
        <path id="Trazado_7060" data-name="Trazado 7060" d="M205.277,577.867c-20.009-15.215-38.072-33.94-51.406-56.41s-21.788-48.821-22.205-75.71c-.155-10.06.788-20.245-1.033-30.1-6.608-35.763-46.778-56.357-49.595-92.727-1.16-14.98,4.46-29.016,7.683-43.24,3.288-14.513.861-27.968-4.823-41.475q-3.007-7.15-6.016-14.3a12.5,12.5,0,0,1-1.335-5.181c.133-3.746,3.64-6.462,7.018-6.676s6.606,1.4,9.675,2.975c19.914,10.232,40.5,27.52,48.832,50.831,8.909,24.939,5.252,53.323,11.773,79.154,1.748,6.927,4.286,13.743,8.458,19.253,6.614,8.738,16.548,13.3,25.176,19.513,14.478,10.432,26.247,27.988,25.244,47.094-.738,14.059-8.1,26.616-10.717,40.4-3.046,16.074.614,33,7.29,47.658s16.15,28.67,25.608,41.315Z" transform="translate(-76.326 -208.159)" fill="#5237b5"/>
        <path id="Trazado_7061" data-name="Trazado 7061" d="M223.442,522.427c-29.543-31.87-46.372-76-54.155-120.868s-7.206-90.941-6.407-136.622c21.871,10.83,43.708,22.037,63.7,36.652s38.215,32.853,50.775,55.458c15.053,27.092,21.292,59.115,24,90.79,2.045,23.924,1.137,47.887-.563,71.845Z" transform="translate(-53.72 -187.001)" fill="#fc5252"/>
        <g id="Grupo_1023" data-name="Grupo 1023" transform="translate(0 50.287)">
          <path id="Trazado_7062" data-name="Trazado 7062" d="M76.663,309.894c4.469-2.593,9.74-2.861,14.77-2.437,21.194,1.788,40.619,14.907,55.212,32.034s24.935,38.094,34.415,59.178c3.907,8.69,20.916,39.812,5.614,39.289-10.21-.349-30.261-21.074-38.385-27.508a220.21,220.21,0,0,1-42.661-45.161C102.684,361.145,73.138,311.939,76.663,309.894Z" transform="translate(-76.371 -220.35)" fill="#ff97d3"/>
          <path id="Trazado_7063" data-name="Trazado 7063" d="M188.037,431.976a256.384,256.384,0,0,1,34.294-110.769c6.443,11.3,7.374,25.425,6.51,38.762-2.048,31.6-6.694,55.584-15.816,85.265-2.6,8.448-16.713,37.374-19.511,35.531C184.663,474.931,187.3,441.939,188.037,431.976Z" transform="translate(-47.232 -214.786)" fill="#f9c5e0"/>
          <g id="Grupo_1019" data-name="Grupo 1019" transform="translate(16.495 94.042)">
            <path id="Trazado_7064" data-name="Trazado 7064" d="M254.38,600.728a499.933,499.933,0,0,0-19.4-64.242,579.83,579.83,0,0,0-27.08-60.863c-9.752-18.971-20.922-38.281-33.2-57.393-11.686-18.187-24.325-36.208-37.565-53.563-10.531-13.8-24.819-31.464-41.958-45.65-1.912-1.583-3.846-3.113-5.749-4.547l1.292-2.105c1.93,1.454,3.892,3.007,5.832,4.611,17.326,14.342,31.726,32.142,42.337,46.048,13.282,17.408,25.961,35.484,37.683,53.729,12.322,19.18,23.534,38.563,33.325,57.61a582.212,582.212,0,0,1,27.2,61.146,502.382,502.382,0,0,1,19.5,64.594Z" transform="translate(-89.43 -312.364)" fill="#31177a"/>
          </g>
          <g id="Grupo_1020" data-name="Grupo 1020" transform="translate(146.099 136.755)">
            <path id="Trazado_7065" data-name="Trazado 7065" d="M198.95,499.693a1.118,1.118,0,0,1-1.3-.679c-5.837-13.212-7.131-31.911-3.845-55.576,4.7-33.841,9.555-68.835,24.317-99.882a1.1,1.1,0,0,1,1.551-.535,1.345,1.345,0,0,1,.481,1.72c-14.582,30.67-19.41,65.451-24.079,99.084-3.214,23.14-1.989,41.332,3.638,54.069a1.337,1.337,0,0,1-.527,1.7A1.108,1.108,0,0,1,198.95,499.693Z" transform="translate(-192.032 -342.876)" fill="#31177a"/>
          </g>
          <g id="Grupo_1021" data-name="Grupo 1021" transform="translate(51.703)">
            <path id="Trazado_7066" data-name="Trazado 7066" d="M199.529,498.153a1.037,1.037,0,0,1-.174.032,1.189,1.189,0,0,1-1.244-1.158c-2.515-31.855-6.935-68.765-20.647-101.013-6.893-15.057-15.369-29.837-23.566-44.13-4.042-7.048-8.222-14.338-12.142-21.54-11.74-21.885-25.123-51.116-24.429-83.239l.027-1.919,1.589.785c6.759,3.342,8.523,4.365,8.856,5.156,16.742,11.3,27.639,27.994,34.1,40.892,9.507,18.974,15.3,41.248,18.229,70.1,1.425,14.024,2.747,27.812,3.264,42.316a1.53,1.53,0,0,1-.016.276c10.894,30.14,14.739,63.194,17.021,92.1A1.265,1.265,0,0,1,199.529,498.153ZM119.6,249.853c.1,30.425,12.879,58.213,24.128,79.182,3.9,7.17,8.074,14.447,12.11,21.484,8.226,14.343,16.731,29.177,23.69,44.377q.656,1.539,1.282,3.092c-.629-12.066-1.76-23.741-2.962-35.588-2.9-28.5-8.6-50.475-17.955-69.143-6.435-12.845-17.353-29.526-34.18-40.546A32.355,32.355,0,0,1,119.6,249.853Z" transform="translate(-117.302 -245.186)" fill="#31177a"/>
          </g>
          <g id="Grupo_1022" data-name="Grupo 1022" transform="translate(52.522 3.13)">
            <path id="Trazado_7067" data-name="Trazado 7067" d="M180.937,401.3c-1.791-4.888-3.863-11.6-6.057-18.7-2.6-8.4-5.28-17.087-7.551-22.855-7.417-18.834-15.334-37.737-23.532-56.182s-16.891-36.917-25.846-54.916l2.012-1.23c8.971,18.035,17.684,36.546,25.9,55.021s16.146,37.418,23.576,56.29c2.309,5.861,5.008,14.6,7.619,23.048,2.183,7.065,4.246,13.74,6.011,18.563Z" transform="translate(-117.951 -247.422)" fill="#31177a"/>
          </g>
        </g>
        <path id="Trazado_7068" data-name="Trazado 7068" d="M181.354,489.443c-17.533-2.95-33.388-13.715-46.247-27.249S112.041,432.388,102,416.188c10.1-2.282,20.266-4.421,30.562-4.858s20.788.887,30.287,5.308c11.385,5.3,20.8,14.769,28.905,25.1a180.114,180.114,0,0,1,16.035,25.285Z" transform="translate(-69.627 -128.491)" fill="#6a59e3"/>
        <g id="Grupo_1053" data-name="Grupo 1053" transform="translate(54.825 3.376)">
          <path id="Trazado_7069" data-name="Trazado 7069" d="M325.165,475.536,119.774,421.72l334.548-52.911,166.851,24.556Z" transform="translate(-119.774 -148.84)" fill="#b5c1fb"/>
          <path id="Trazado_7070" data-name="Trazado 7070" d="M497.639,398.462c-17.5-8.243-37.384-9.757-56.084-11.991-8.125-.97-18.248-1.126-25.02-6.7a12.072,12.072,0,0,1-4.5-7.807l-239.37,37.857c.2,2.874,2.054,5.063,4.532,6.628,7.253,4.583,16.775,5.192,24.922,5.682,8.783.529,17.436-.255,26.213-.582,3.294-.123,28.745.367,23.732,9.568-1.224,2.247-3.79,3.666-5.5,5.408a8.744,8.744,0,0,0-1.467,1.621c-.854,1.7-.743.6.313,1.821.9,1.032,2.913,1.5,4.107,1.823,6.254,1.669,13.121.526,19.385-.5,13.8-2.251,28.361-4.876,42.209-1.9a1.139,1.139,0,0,1,.432,1.814c-2.386,2.373-5.42,3.787-7.8,6.165-3.851,3.846-1.78,7.079,2.169,9.059,6.008,3.011,13.32,4.274,19.7,5.877q8.049,2.024,16.21,3.43l170.257-47.262a17.012,17.012,0,0,0,.274-2.642C512.572,406.79,504.153,401.531,497.639,398.462Z" transform="translate(-105.854 -147.579)" fill="#92a5ea" opacity="0.55"/>
          <g id="Grupo_1027" data-name="Grupo 1027" transform="translate(186.585)">
            <path id="Trazado_7071" data-name="Trazado 7071" d="M268.2,211.689c3.291-.165,6.478,1.291,9.347,3.083,12.1,7.55,20.319,21.264,24.682,35.869s5.255,30.182,5.606,45.562c.144,6.34,2.447,29.966-6.479,24.97-5.955-3.335-12.649-21.74-15.853-28.037a161.424,161.424,0,0,1-13.982-39.793C270.82,249.988,265.609,211.819,268.2,211.689Z" transform="translate(-267.485 -211.676)" fill="#ff97d3"/>
            <path id="Trazado_7072" data-name="Trazado 7072" d="M310.714,312.115a150.146,150.146,0,0,1,47.924-55.042c.993,8.664-1.978,17.3-5.816,24.932A205.428,205.428,0,0,1,322.2,327.616c-3.643,4.2-19.212,17-20.408,15.047C298,336.5,307.8,317.786,310.714,312.115Z" transform="translate(-258.684 -193.522)" fill="#b5c1fb"/>
            <g id="Grupo_1024" data-name="Grupo 1024" transform="translate(8.629 8.013)">
              <path id="Trazado_7073" data-name="Trazado 7073" d="M302.07,438.519l-1.547-.328a334.657,334.657,0,0,0,4.544-43.952,400.38,400.38,0,0,0-.844-44.308c-1.038-14.213-2.832-29.06-5.331-44.129-2.38-14.346-5.363-28.88-8.87-43.2-2.789-11.392-6.836-26.219-13.438-39.861-.731-1.51-1.493-3.006-2.267-4.449l1.354-.893c.786,1.466,1.56,2.986,2.3,4.517,6.676,13.8,10.76,28.745,13.57,40.227,3.517,14.367,6.512,28.948,8.9,43.341,2.509,15.126,4.31,30.032,5.352,44.305a402.386,402.386,0,0,1,.848,44.522A336.732,336.732,0,0,1,302.07,438.519Z" transform="translate(-274.317 -217.4)" fill="#31177a"/>
            </g>
            <g id="Grupo_1025" data-name="Grupo 1025" transform="translate(39.564 80.8)">
              <path id="Trazado_7074" data-name="Trazado 7074" d="M299.642,356.184a.206.206,0,0,1-.03,0,.829.829,0,0,1-.8-.857c-.16-9.616,3.74-21.084,11.591-34.089,11.223-18.589,22.828-37.812,39.312-51.667a.738.738,0,0,1,1.1.168.939.939,0,0,1-.152,1.223c-16.275,13.678-27.8,32.777-38.955,51.247-7.669,12.7-11.48,23.833-11.327,33.085A.842.842,0,0,1,299.642,356.184Z" transform="translate(-298.806 -269.395)" fill="#31177a"/>
            </g>
            <g id="Grupo_1026" data-name="Grupo 1026" transform="translate(38.412 15.092)">
              <path id="Trazado_7075" data-name="Trazado 7075" d="M298.477,345.093a.51.51,0,0,1-.221-.035.633.633,0,0,1-.328-.785c4.523-13.746,9.142-30,9.092-46.311-.226-7.722-1.157-15.669-2.058-23.354-.445-3.792-.9-7.713-1.271-11.542-1.043-11.6-1.484-26.6,4.421-39.778l.365-.83.547.7c2.222,2.839,2.784,3.648,2.783,4.057,4.963,8.283,6.563,17.541,6.989,24.278.625,9.913-.865,20.4-4.694,32.993-1.861,6.122-3.723,12.123-6.044,18.25a.71.71,0,0,1-.053.109c-.753,14.84-4.935,29.371-9.041,41.848A.56.56,0,0,1,298.477,345.093Zm10.128-120.115c-5.257,12.621-4.814,26.865-3.815,37.961.364,3.812.822,7.726,1.266,11.51.9,7.715,1.839,15.693,2.068,23.492,0,.468,0,.934-.008,1.4,1.827-5.089,3.384-10.125,4.94-15.248,3.779-12.438,5.254-22.771,4.638-32.518-.423-6.7-2.034-15.96-7.083-24.137A17.079,17.079,0,0,1,308.606,224.978Z" transform="translate(-297.894 -222.457)" fill="#31177a"/>
            </g>
          </g>
          <g id="Grupo_1032" data-name="Grupo 1032" transform="translate(253.565 73.227)">
            <path id="Trazado_7076" data-name="Trazado 7076" d="M410.445,296.237c-2.774-.959-5.788-.508-8.6.307-11.847,3.438-21.637,13.1-28.314,24.476s-10.587,24.446-14,37.482c-1.406,5.374-8.149,24.96.478,22.915,5.755-1.366,15.19-15.409,19.2-19.985a133.862,133.862,0,0,0,19.977-30.48C400.468,328.265,412.634,296.991,410.445,296.237Z" transform="translate(-311.25 -251.304)" fill="#ff97d3"/>
            <path id="Trazado_7077" data-name="Trazado 7077" d="M351.944,376.068A142.248,142.248,0,0,0,322.186,317.2c-2.6,7.145-1.813,15.256-.081,22.717a193.063,193.063,0,0,0,16.908,46.524c2.26,4.491,12.956,19.274,14.37,17.907C357.857,400.031,353.288,381.632,351.944,376.068Z" transform="translate(-320.511 -242.704)" fill="#b5c1fb"/>
            <g id="Grupo_1028" data-name="Grupo 1028" transform="translate(35.878 49.457)">
              <path id="Trazado_7078" data-name="Trazado 7078" d="M402.709,299.314c-.966,1.054-1.935,2.16-2.878,3.283-8.487,10.114-14.994,21.854-19.714,30.952-5.907,11.385-11.41,23.083-16.357,34.771-5.2,12.283-9.75,24.554-13.526,36.474-.452,1.425-.888,2.85-1.32,4.275q.972-.8,1.957-1.582c.225-.728.443-1.456.675-2.185,3.76-11.87,8.293-24.092,13.473-36.329,4.93-11.649,10.416-23.308,16.3-34.656,4.684-9.028,11.136-20.672,19.527-30.672.928-1.107,1.881-2.2,2.833-3.232Z" transform="translate(-348.914 -299.314)" fill="#31177a"/>
            </g>
            <g id="Grupo_1029" data-name="Grupo 1029" transform="translate(5 91.426)">
              <path id="Trazado_7079" data-name="Trazado 7079" d="M352.5,400.27a90.046,90.046,0,0,0-3.7-16.832c-5.817-18.648-11.831-37.931-23.093-53.848a.651.651,0,0,0-.976-.13.827.827,0,0,0-.117,1.081c11.12,15.712,17.094,34.873,22.874,53.4a86.28,86.28,0,0,1,3.733,17.5C351.651,401.051,352.071,400.652,352.5,400.27Z" transform="translate(-324.469 -329.295)" fill="#31177a"/>
            </g>
            <g id="Grupo_1030" data-name="Grupo 1030" transform="translate(36.604)">
              <path id="Trazado_7080" data-name="Trazado 7080" d="M350.9,416.181c-1.4-16.646-2.3-35.82,1.069-54.155a.828.828,0,0,1-.034-.153c-1.059-8.282-1.593-16.25-2.092-24.364-1.026-16.692.183-29.984,3.806-41.833,2.462-8.051,7.083-18.756,15.517-27.081.115-.5,1.033-1.284,4.558-3.955l.869-.657.2,1.14c3.385,18.138-1.479,36.245-6.1,50-1.551,4.533-3.243,9.144-4.877,13.6-3.315,9.038-6.742,18.385-9.246,27.705-4.767,19.843-3.834,41.269-2.293,59.609a.753.753,0,0,1-.628.839.616.616,0,0,1-.278-.035A.754.754,0,0,1,350.9,416.181ZM370.55,269.293c-8.506,8.167-13.139,18.865-15.589,26.878-3.562,11.65-4.75,24.751-3.736,41.235.418,6.788.86,13.473,1.614,20.315q.191-.857.4-1.709c2.529-9.414,5.969-18.795,9.3-27.868,1.632-4.45,3.32-9.053,4.863-13.565,4.417-13.155,9.068-30.341,6.31-47.571A19.825,19.825,0,0,1,370.55,269.293Z" transform="translate(-349.488 -263.985)" fill="#31177a"/>
            </g>
            <g id="Grupo_1031" data-name="Grupo 1031" transform="translate(38.839 2.14)">
              <path id="Trazado_7081" data-name="Trazado 7081" d="M351.258,359.423l1.36.314c.56-2.978,1.11-7.018,1.693-11.294.688-5.058,1.4-10.288,2.151-13.816,2.451-11.529,5.178-23.149,8.1-34.537S370.7,277.235,374.1,266l-1.317-.49c-3.407,11.254-6.622,22.745-9.555,34.155s-5.665,23.053-8.121,34.605c-.763,3.588-1.479,8.85-2.173,13.939C352.357,352.468,351.81,356.487,351.258,359.423Z" transform="translate(-351.258 -265.514)" fill="#31177a"/>
            </g>
          </g>
          <g id="Grupo_1051" data-name="Grupo 1051" transform="translate(109.218 114.563)">
            <path id="Trazado_7082" data-name="Trazado 7082" d="M356.871,411.124,232.292,434.74,206.578,324.818c-1.581-6.759,2.516-13.531,8.759-14.476l110.411-16.72c5.513-.834,10.659,3.232,11.742,9.281Z" transform="translate(-206.237 -293.513)" fill="#6a59e3"/>
            <path id="Trazado_7083" data-name="Trazado 7083" d="M352.176,407.884,235.934,430.154,211.94,326.57c-1.475-6.368,2.348-12.75,8.171-13.642l103.023-15.756c5.145-.787,9.946,3.046,10.957,8.747Z" transform="translate(-204.82 -292.09)" fill="#b5c1fb"/>
            <path id="Trazado_7084" data-name="Trazado 7084" d="M446.517,396.6,339.969,435.659l-113.1-34.516,124.579-23.616Z" transform="translate(-200.809 -259.916)" fill="#8598dd"/>
            <path id="Trazado_7085" data-name="Trazado 7085" d="M377.533,401.4,343.11,414.12,317.7,405.037l35.243-9.991Z" transform="translate(-176.903 -252.91)" fill="#b5c1fb"/>
            <path id="Trazado_7086" data-name="Trazado 7086" d="M280.833,387.081l-13.822,2.735c4.289,1.58,8.574,3.165,12.845,4.8l12.764-2.789Q286.739,389.416,280.833,387.081Z" transform="translate(-190.243 -256.095)" fill="#b5c1fb"/>
            <path id="Trazado_7087" data-name="Trazado 7087" d="M328.659,384.292l12.553-2.742-15.572-2.724-6.954,1.375C322.054,381.415,325.373,382.8,328.659,384.292Z" transform="translate(-176.644 -259.397)" fill="#b5c1fb"/>
            <path id="Trazado_7088" data-name="Trazado 7088" d="M317.73,380.407l-11.519,2.279q5.648,2.066,11.3,4.124l10.906-2.381A113.173,113.173,0,0,0,317.73,380.407Z" transform="translate(-179.927 -258.764)" fill="#b5c1fb"/>
            <path id="Trazado_7089" data-name="Trazado 7089" d="M305.231,382.607l-10.676,2.114c4.124,1.5,8.284,2.881,12.469,4.17l9.638-2.105Q310.943,384.7,305.231,382.607Z" transform="translate(-182.995 -257.884)" fill="#b5c1fb"/>
            <path id="Trazado_7090" data-name="Trazado 7090" d="M294.11,384.684l-13.1,2.593q5.813,2.318,11.6,4.711l13.75-3C302.244,387.657,298.158,386.237,294.11,384.684Z" transform="translate(-186.56 -257.054)" fill="#b5c1fb"/>
            <path id="Trazado_7091" data-name="Trazado 7091" d="M266.774,389.605l-14.182,2.807c4.736,1.547,9.46,3.133,14.129,4.9l13.1-2.861C275.481,392.809,271.125,391.214,266.774,389.605Z" transform="translate(-194.038 -255.086)" fill="#b5c1fb"/>
            <path id="Trazado_7092" data-name="Trazado 7092" d="M253.343,392.22l-19.991,3.956,18.032,4.541,16.539-3.613C263.095,395.371,258.218,393.795,253.343,392.22Z" transform="translate(-199.102 -254.04)" fill="#b5c1fb"/>
            <path id="Trazado_7093" data-name="Trazado 7093" d="M298.965,391.1l-13.775,3.013c4.314,1.494,8.626,2.992,12.922,4.543l12.716-3.045Q304.909,393.315,298.965,391.1Z" transform="translate(-185.459 -254.487)" fill="#b5c1fb"/>
            <path id="Trazado_7094" data-name="Trazado 7094" d="M346.727,387.409l12.505-2.994-15.615-2.409-6.929,1.515C340.077,384.666,343.418,385.99,346.727,387.409Z" transform="translate(-171.906 -258.125)" fill="#b5c1fb"/>
            <path id="Trazado_7095" data-name="Trazado 7095" d="M335.736,383.748l-11.48,2.511q5.68,1.951,11.365,3.9l10.865-2.6A112.473,112.473,0,0,0,335.736,383.748Z" transform="translate(-175.178 -257.428)" fill="#b5c1fb"/>
            <path id="Trazado_7096" data-name="Trazado 7096" d="M323.281,386.172,312.64,388.5c4.148,1.419,8.331,2.714,12.536,3.92l9.6-2.3Q329.027,388.154,323.281,386.172Z" transform="translate(-178.235 -256.459)" fill="#b5c1fb"/>
            <path id="Trazado_7097" data-name="Trazado 7097" d="M312.2,388.46l-13.056,2.857q5.849,2.2,11.675,4.477l13.7-3.28C320.379,391.27,316.27,389.93,312.2,388.46Z" transform="translate(-181.788 -255.544)" fill="#b5c1fb"/>
            <path id="Trazado_7098" data-name="Trazado 7098" d="M284.954,393.882l-14.134,3.092c4.761,1.452,9.51,2.941,14.208,4.61l13.054-3.126C293.712,396.911,289.332,395.4,284.954,393.882Z" transform="translate(-189.241 -253.376)" fill="#b5c1fb"/>
            <path id="Trazado_7099" data-name="Trazado 7099" d="M271.569,396.763l-19.922,4.359,18.1,4.176,16.477-3.945C281.371,399.718,276.468,398.24,271.569,396.763Z" transform="translate(-194.287 -252.224)" fill="#b5c1fb"/>
            <path id="Trazado_7100" data-name="Trazado 7100" d="M317.09,394.5l-13.71,3.353c4.343,1.387,8.684,2.777,13.011,4.223l12.652-3.358Q323.078,396.57,317.09,394.5Z" transform="translate(-180.672 -253.128)" fill="#b5c1fb"/>
            <path id="Trazado_7101" data-name="Trazado 7101" d="M360.7,384.527l-6.062,1.482c3.409,1.063,6.777,2.3,10.114,3.64l9.807-2.6C369.955,386.119,365.368,385.051,360.7,384.527Z" transform="translate(-167.182 -257.117)" fill="#b5c1fb"/>
            <path id="Trazado_7102" data-name="Trazado 7102" d="M353.692,386.321l-11.427,2.794q5.718,1.81,11.439,3.615l10.81-2.87A112.269,112.269,0,0,0,353.692,386.321Z" transform="translate(-170.439 -256.399)" fill="#b5c1fb"/>
            <path id="Trazado_7103" data-name="Trazado 7103" d="M341.293,389.018l-10.59,2.59c4.175,1.317,8.382,2.509,12.61,3.609l9.553-2.535Q347.078,390.859,341.293,389.018Z" transform="translate(-173.482 -255.321)" fill="#b5c1fb"/>
            <path id="Trazado_7104" data-name="Trazado 7104" d="M330.261,391.563l-13,3.179q5.891,2.056,11.763,4.187l13.628-3.617C338.5,394.17,334.362,392.934,330.261,391.563Z" transform="translate(-177.018 -254.303)" fill="#b5c1fb"/>
            <path id="Trazado_7105" data-name="Trazado 7105" d="M303.145,397.6l-14.068,3.441c4.789,1.333,9.567,2.7,14.3,4.257l12.988-3.447C311.962,400.407,307.552,399.007,303.145,397.6Z" transform="translate(-184.436 -251.89)" fill="#b5c1fb"/>
            <path id="Trazado_7106" data-name="Trazado 7106" d="M289.821,400.8l-19.829,4.849,18.183,3.729,16.393-4.351C299.682,403.513,294.75,402.156,289.821,400.8Z" transform="translate(-189.459 -250.609)" fill="#b5c1fb"/>
            <path id="Trazado_7107" data-name="Trazado 7107" d="M339.969,439.812l-113.1-38.149V394.4l113.1,34.516Z" transform="translate(-200.809 -253.17)" fill="#31177a"/>
            <path id="Trazado_7108" data-name="Trazado 7108" d="M422.953,391.152,316.4,430.21v10.9l106.548-39.966Z" transform="translate(-177.244 -254.467)" fill="#231068"/>
            <path id="Trazado_7109" data-name="Trazado 7109" d="M218.274,315.654,321.3,299.9c5.144-.787,9.945,3.046,10.957,8.747l17.67,99.633,2.053-.393L333.892,305.919c-1.01-5.7-5.812-9.533-10.957-8.747L219.913,312.928a9.967,9.967,0,0,0-7.532,6.189A9.462,9.462,0,0,1,218.274,315.654Z" transform="translate(-204.621 -292.09)" fill="#99cad1" opacity="0.67"/>
            <path id="Trazado_7110" data-name="Trazado 7110" d="M211.5,324.817c-1.581-6.759,2.516-13.531,8.759-14.476L329.466,293.8a9.475,9.475,0,0,0-3.718-.182L215.337,310.34c-6.243.945-10.34,7.718-8.759,14.476l25.714,109.922,4.918,2.724Z" transform="translate(-206.237 -293.512)" fill="#31177a"/>
            <g id="Grupo_1049" data-name="Grupo 1049" transform="translate(49.967 26.78)">
              <g id="Grupo_1033" data-name="Grupo 1033" transform="translate(10.775)">
                <path id="Trazado_7111" data-name="Trazado 7111" d="M296.078,352.389,256.159,362.43,254.324,318.5l30.655-5.857,10.042,7.029Z" transform="translate(-254.324 -312.643)" fill="#efd0da"/>
                <path id="Trazado_7112" data-name="Trazado 7112" d="M288.679,321.684l-.066-2.033-9.939-6.956v8.99Z" transform="translate(-247.916 -312.622)" fill="#ffe6ef"/>
                <path id="Trazado_7113" data-name="Trazado 7113" d="M281.044,337.744c1.531-.309,3.067-.588,4.608-.825" transform="translate(-247.292 -302.935)" fill="none" stroke="#fc8a8a" stroke-linecap="round" stroke-miterlimit="10" stroke-width="4"/>
                <path id="Trazado_7114" data-name="Trazado 7114" d="M272.425,339.912c2.8-.7,5.6-1.407,8.419-2.031" transform="translate(-249.56 -302.55)" fill="none" stroke="#fc8a8a" stroke-linecap="round" stroke-miterlimit="10" stroke-width="4"/>
                <path id="Trazado_7115" data-name="Trazado 7115" d="M257.47,343.057a135.225,135.225,0,0,0,16.189-3.242" transform="translate(-253.496 -301.776)" fill="none" stroke="#fc8a8a" stroke-linecap="round" stroke-miterlimit="10" stroke-width="4"/>
                <path id="Trazado_7116" data-name="Trazado 7116" d="M280.956,334.138q2.31-.506,4.622-.984" transform="translate(-247.315 -304.44)" fill="none" stroke="#fc8a8a" stroke-linecap="round" stroke-miterlimit="10" stroke-width="4"/>
                <path id="Trazado_7117" data-name="Trazado 7117" d="M269.442,336.994c4.141-.918,8.275-1.879,12.414-2.8" transform="translate(-250.345 -304.025)" fill="none" stroke="#fc8a8a" stroke-linecap="round" stroke-miterlimit="10" stroke-width="4"/>
                <path id="Trazado_7118" data-name="Trazado 7118" d="M257.48,339.018c4.013-.682,8.01-1.481,12-2.338" transform="translate(-253.493 -303.03)" fill="none" stroke="#fc8a8a" stroke-linecap="round" stroke-miterlimit="10" stroke-width="4"/>
                <path id="Trazado_7119" data-name="Trazado 7119" d="M280.982,330.392q2.329-.462,4.659-.913" transform="translate(-247.308 -305.91)" fill="none" stroke="#fc8a8a" stroke-linecap="round" stroke-miterlimit="10" stroke-width="4"/>
                <path id="Trazado_7120" data-name="Trazado 7120" d="M266.247,333.81q8.227-1.716,16.463-3.374" transform="translate(-251.186 -305.527)" fill="none" stroke="#fc8a8a" stroke-linecap="round" stroke-miterlimit="10" stroke-width="4"/>
                <path id="Trazado_7121" data-name="Trazado 7121" d="M257.5,334.967l7.875-1.648" transform="translate(-253.488 -304.374)" fill="none" stroke="#fc8a8a" stroke-linecap="round" stroke-miterlimit="10" stroke-width="4"/>
                <path id="Trazado_7122" data-name="Trazado 7122" d="M281.073,326.429q2.291-.479,4.569-1.028" transform="translate(-247.284 -307.54)" fill="none" stroke="#fc8a8a" stroke-linecap="round" stroke-miterlimit="10" stroke-width="4"/>
                <path id="Trazado_7123" data-name="Trazado 7123" d="M262.586,330.259c6.939-1.408,13.937-2.415,20.883-3.769" transform="translate(-252.15 -307.105)" fill="none" stroke="#fc8a8a" stroke-linecap="round" stroke-miterlimit="10" stroke-width="4"/>
                <path id="Trazado_7124" data-name="Trazado 7124" d="M257.484,330.426q1.611-.395,3.229-.755" transform="translate(-253.492 -305.833)" fill="none" stroke="#fc8a8a" stroke-linecap="round" stroke-miterlimit="10" stroke-width="4"/>
                <line id="Línea_49" data-name="Línea 49" y1="2.618" x2="13.868" transform="translate(14.573 4.697)" fill="none" stroke="#fc8a8a" stroke-linecap="round" stroke-miterlimit="10" stroke-width="4"/>
                <line id="Línea_50" data-name="Línea 50" y1="2.618" x2="13.868" transform="translate(14.573 10.554)" fill="none" stroke="#fc8a8a" stroke-linecap="round" stroke-miterlimit="10" stroke-width="4"/>
                <path id="Trazado_7125" data-name="Trazado 7125" d="M264.012,329.1l-3.512.8a2.994,2.994,0,0,1-3.479-3.146v-5.079a3.149,3.149,0,0,1,2.314-3.146l3.512-.8a2.993,2.993,0,0,1,3.479,3.144v5.08A3.15,3.15,0,0,1,264.012,329.1Z" transform="translate(-253.614 -310.635)" fill="#fc8a8a"/>
              </g>
              <path id="Trazado_7126" data-name="Trazado 7126" d="M303.294,342.787a3.611,3.611,0,0,0-4.035-3.655l-3.891.679-.14-3.491a1.366,1.366,0,0,0-1.526-1.382l-19.112,3.333a1.438,1.438,0,0,0-1.114,1.526l.184,3.8-24.915,4.347a3.8,3.8,0,0,0-2.947,4.034l2.984,45.518c.114,2.336,4.785,5.693,6.86,5.264l46.622-10.589a3.807,3.807,0,0,0,2.848-3.978Z" transform="translate(-245.794 -303.734)" fill="#e08b03"/>
              <g id="Grupo_1048" data-name="Grupo 1048" transform="translate(3.863 16.414)">
                <path id="Trazado_7127" data-name="Trazado 7127" d="M287.854,361.493l-37.287,9.379-1.714-41.034,28.634-5.471,9.38,6.565Z" transform="translate(-248.852 -324.367)" fill="#fff"/>
                <path id="Trazado_7128" data-name="Trazado 7128" d="M280.942,332.813l-.061-1.9-9.284-6.5v8.4Z" transform="translate(-242.866 -324.348)" fill="#e9fdff"/>
                <g id="Grupo_1034" data-name="Grupo 1034" transform="translate(29.477 29.473)" opacity="0.67">
                  <path id="Trazado_7129" data-name="Trazado 7129" d="M274.235,350.732a2.12,2.12,0,0,1-2.014-1.865,2.263,2.263,0,0,1,1.648-2.64c1.559-.315,2.995-.571,4.39-.785a2.1,2.1,0,0,1,2.312,1.937,2.245,2.245,0,0,1-1.749,2.562c-1.336.2-2.716.451-4.218.755A1.849,1.849,0,0,1,274.235,350.732Z" transform="translate(-272.188 -345.422)" fill="#99cad1"/>
                </g>
                <g id="Grupo_1035" data-name="Grupo 1035" transform="translate(19.308 30.731)" opacity="0.67">
                  <path id="Trazado_7130" data-name="Trazado 7130" d="M266.184,352.76a2.107,2.107,0,0,1-2-1.771,2.285,2.285,0,0,1,1.545-2.716c2.568-.645,5.223-1.313,7.916-1.908a2.062,2.062,0,0,1,2.41,1.781,2.271,2.271,0,0,1-1.607,2.671c-2.643.587-5.271,1.247-7.814,1.886A1.88,1.88,0,0,1,266.184,352.76Z" transform="translate(-264.138 -346.32)" fill="#99cad1"/>
                </g>
                <g id="Grupo_1036" data-name="Grupo 1036" transform="translate(1.663 33.261)" opacity="0.67">
                  <path id="Trazado_7131" data-name="Trazado 7131" d="M252.215,355.7a2.138,2.138,0,0,1-2.034-2.021,2.228,2.228,0,0,1,1.811-2.507,123.034,123.034,0,0,0,14.9-2.986,2.057,2.057,0,0,1,2.448,1.718,2.285,2.285,0,0,1-1.55,2.713,126.4,126.4,0,0,1-15.346,3.07A1.793,1.793,0,0,1,252.215,355.7Z" transform="translate(-250.169 -348.127)" fill="#99cad1"/>
                </g>
                <g id="Grupo_1037" data-name="Grupo 1037" transform="translate(29.374 24.55)" opacity="0.67">
                  <path id="Trazado_7132" data-name="Trazado 7132" d="M274.154,347.365a2.117,2.117,0,0,1-2.008-1.832,2.273,2.273,0,0,1,1.614-2.667q2.168-.473,4.338-.924a2.078,2.078,0,0,1,2.39,1.817,2.269,2.269,0,0,1-1.64,2.649q-2.151.443-4.3.914A1.848,1.848,0,0,1,274.154,347.365Z" transform="translate(-272.106 -341.904)" fill="#99cad1"/>
                </g>
                <g id="Grupo_1038" data-name="Grupo 1038" transform="translate(15.789 25.908)" opacity="0.67">
                  <path id="Trazado_7133" data-name="Trazado 7133" d="M263.4,350.033a2.116,2.116,0,0,1-2.007-1.825A2.275,2.275,0,0,1,263,345.535q3.037-.674,6.068-1.368,2.762-.628,5.526-1.249a2.067,2.067,0,0,1,2.413,1.781,2.271,2.271,0,0,1-1.605,2.672c-1.838.409-3.675.827-5.511,1.244-2.027.461-4.056.923-6.086,1.372A1.823,1.823,0,0,1,263.4,350.033Z" transform="translate(-261.351 -342.875)" fill="#99cad1"/>
                </g>
                <g id="Grupo_1039" data-name="Grupo 1039" transform="translate(1.675 29.16)" opacity="0.67">
                  <path id="Trazado_7134" data-name="Trazado 7134" d="M252.224,351.923A2.127,2.127,0,0,1,250.2,350a2.249,2.249,0,0,1,1.714-2.588c3.346-.568,6.985-1.278,11.126-2.168a2.068,2.068,0,0,1,2.4,1.8,2.269,2.269,0,0,1-1.621,2.661c-4.194.9-7.886,1.621-11.285,2.2A1.832,1.832,0,0,1,252.224,351.923Z" transform="translate(-250.178 -345.198)" fill="#99cad1"/>
                </g>
                <g id="Grupo_1040" data-name="Grupo 1040" transform="translate(29.404 19.743)" opacity="0.67">
                  <path id="Trazado_7135" data-name="Trazado 7135" d="M274.178,343.866a2.119,2.119,0,0,1-2.015-1.872,2.262,2.262,0,0,1,1.656-2.635q2.179-.433,4.359-.855a2.082,2.082,0,0,1,2.371,1.847,2.26,2.26,0,0,1-1.665,2.628q-2.173.42-4.344.851A1.791,1.791,0,0,1,274.178,343.866Z" transform="translate(-272.13 -338.471)" fill="#99cad1"/>
                </g>
                <g id="Grupo_1041" data-name="Grupo 1041" transform="translate(12.019 20.995)" opacity="0.67">
                  <path id="Trazado_7136" data-name="Trazado 7136" d="M260.415,347.059a2.118,2.118,0,0,1-2.012-1.852,2.269,2.269,0,0,1,1.636-2.651c6.195-1.291,10.942-2.264,15.392-3.153a2.076,2.076,0,0,1,2.381,1.831,2.263,2.263,0,0,1-1.654,2.637c-4.439.887-9.177,1.859-15.361,3.148A1.888,1.888,0,0,1,260.415,347.059Z" transform="translate(-258.367 -339.365)" fill="#99cad1"/>
                </g>
                <g id="Grupo_1042" data-name="Grupo 1042" transform="translate(1.701 24.767)" opacity="0.67">
                  <path id="Trazado_7137" data-name="Trazado 7137" d="M252.245,348.139a2.117,2.117,0,0,1-2.011-1.849,2.269,2.269,0,0,1,1.633-2.653l7.355-1.538a2.075,2.075,0,0,1,2.394,1.81,2.269,2.269,0,0,1-1.635,2.653l-7.354,1.538A1.884,1.884,0,0,1,252.245,348.139Z" transform="translate(-250.199 -342.059)" fill="#99cad1"/>
                </g>
                <g id="Grupo_1043" data-name="Grupo 1043" transform="translate(29.512 14.412)" opacity="0.67">
                  <path id="Trazado_7138" data-name="Trazado 7138" d="M274.262,340.163a2.115,2.115,0,0,1-2.011-1.851,2.267,2.267,0,0,1,1.633-2.651c1.5-.312,2.872-.622,4.209-.946a2.061,2.061,0,0,1,2.439,1.732,2.283,2.283,0,0,1-1.563,2.7c-1.377.333-2.792.652-4.326.973A1.884,1.884,0,0,1,274.262,340.163Z" transform="translate(-272.216 -334.663)" fill="#99cad1"/>
                </g>
                <g id="Grupo_1044" data-name="Grupo 1044" transform="translate(7.699 15.836)" opacity="0.67">
                  <path id="Trazado_7139" data-name="Trazado 7139" d="M256.995,343.742a2.118,2.118,0,0,1-2.013-1.86,2.267,2.267,0,0,1,1.646-2.644c3.512-.713,7.083-1.324,10.537-1.915,2.951-.505,6-1.028,8.984-1.607a2.075,2.075,0,0,1,2.372,1.842,2.261,2.261,0,0,1-1.664,2.629c-3.023.589-6.095,1.116-9.067,1.624-3.426.587-6.969,1.193-10.424,1.894A1.774,1.774,0,0,1,256.995,343.742Z" transform="translate(-254.947 -335.679)" fill="#99cad1"/>
                </g>
                <g id="Grupo_1045" data-name="Grupo 1045" transform="translate(1.679 19.994)" opacity="0.67">
                  <path id="Trazado_7140" data-name="Trazado 7140" d="M252.229,343.9a2.109,2.109,0,0,1-2-1.781,2.285,2.285,0,0,1,1.556-2.709q1.525-.374,3.057-.715a2.065,2.065,0,0,1,2.413,1.779,2.274,2.274,0,0,1-1.6,2.674q-1.493.332-2.977.7A1.816,1.816,0,0,1,252.229,343.9Z" transform="translate(-250.181 -338.65)" fill="#99cad1"/>
                </g>
                <g id="Grupo_1046" data-name="Grupo 1046" transform="translate(11.562 2.118)" opacity="0.67">
                  <path id="Trazado_7141" data-name="Trazado 7141" d="M260.052,332.865a2.123,2.123,0,0,1-2.017-1.89,2.259,2.259,0,0,1,1.676-2.619l12.954-2.446a2.085,2.085,0,0,1,2.363,1.856,2.258,2.258,0,0,1-1.675,2.621L260.4,332.833A1.952,1.952,0,0,1,260.052,332.865Z" transform="translate(-258.006 -325.88)" fill="#99cad1"/>
                </g>
                <g id="Grupo_1047" data-name="Grupo 1047" transform="translate(11.562 7.588)" opacity="0.67">
                  <path id="Trazado_7142" data-name="Trazado 7142" d="M260.052,336.774a2.123,2.123,0,0,1-2.017-1.889,2.26,2.26,0,0,1,1.676-2.621l12.954-2.446a2.083,2.083,0,0,1,2.363,1.858,2.257,2.257,0,0,1-1.675,2.619L260.4,336.741A1.832,1.832,0,0,1,260.052,336.774Z" transform="translate(-258.006 -329.788)" fill="#99cad1"/>
                </g>
                <path id="Trazado_7143" data-name="Trazado 7143" d="M257.9,339.739l-3.279.745a2.8,2.8,0,0,1-3.25-2.937V332.8a2.94,2.94,0,0,1,2.163-2.937l3.279-.746a2.8,2.8,0,0,1,3.25,2.937V336.8A2.942,2.942,0,0,1,257.9,339.739Z" transform="translate(-248.189 -322.492)" fill="#99cad1"/>
              </g>
              <path id="Trazado_7144" data-name="Trazado 7144" d="M305.709,343.137a3.58,3.58,0,0,0-4-3.623l-3.858.673-.139-3.462a1.352,1.352,0,0,0-1.513-1.369l-18.945,3.3a1.425,1.425,0,0,0-1.105,1.513l.183,3.767-24.7,4.309a3.768,3.768,0,0,0-2.922,4l2.26,46.556a3.562,3.562,0,0,0,4.1,3.568l49.624-10.279a3.775,3.775,0,0,0,2.824-3.944Z" transform="translate(-245.028 -303.567)" fill="#ffa400"/>
            </g>
            <g id="Grupo_1050" data-name="Grupo 1050" transform="translate(80.521 33.138)">
              <path id="Trazado_7195" data-name="Trazado 7195" d="M19.6.023c10.314-.5,18.27,7.215,17.769,17.234S28.106,35.8,17.791,36.3-.478,29.088.022,19.069,9.29.524,19.6.023Z" transform="translate(0 29.954) rotate(-53.226)" fill="#fff" opacity="0.77"/>
              <path id="Trazado_7145" data-name="Trazado 7145" d="M285.255,324.429c-8.348,5.353-11.2,17.194-6.369,26.444.246.47.512.921.787,1.361-3.138-7.527-.639-16.6,5.965-20.837,7-4.491,15.961-1.841,20.012,5.919,3.822,7.319,1.909,16.566-4.2,21.361.436-.228.869-.473,1.294-.746,8.347-5.353,11.2-17.192,6.368-26.444S293.6,319.076,285.255,324.429Z" transform="translate(-268.258 -315.329)" fill="#d2dcff"/>
              <path id="Trazado_7146" data-name="Trazado 7146" d="M303.545,359.365c-8.871,5.689-20.266,2.32-25.4-7.512s-2.093-22.46,6.778-28.15,20.266-2.32,25.4,7.513S312.416,353.676,303.545,359.365Zm-17.494-33.5c-7.8,5-10.468,16.1-5.957,24.737s14.525,11.6,22.322,6.6,10.469-16.1,5.957-24.737S293.849,320.864,286.051,325.865Z" transform="translate(-268.492 -315.684)" fill="#31177a"/>
              <path id="Trazado_7147" data-name="Trazado 7147" d="M294.943,349.287c1.526,3.529,3.378,7.417,5.48,11.443,7.282,13.944,14.785,24.224,16.76,22.957s-2.327-13.6-9.609-27.543c-2.1-4.026-4.221-7.741-6.221-10.967Z" transform="translate(-263.414 -305.99)" fill="#31177a"/>
            </g>
            <path id="Trazado_7148" data-name="Trazado 7148" d="M216.03,340.925l32.114-35.589-28.031,4.286c-5.824.892-9.648,7.274-8.173,13.642Z" transform="translate(-204.82 -288.784)" fill="#d2dcff" opacity="0.39"/>
            <path id="Trazado_7149" data-name="Trazado 7149" d="M303.318,299.025,291.082,300.9q-34.811,38.58-69.624,77.159l2.155,9.3Z" transform="translate(-202.232 -291.308)" fill="#d2dcff" opacity="0.39"/>
            <path id="Trazado_7150" data-name="Trazado 7150" d="M334.608,331.467l-4.762-26.849L228.914,416.475l2.469,10.659,20.433-3.915Z" transform="translate(-200.27 -289.071)" fill="#d2dcff" opacity="0.39"/>
            <path id="Trazado_7151" data-name="Trazado 7151" d="M333.245,346.217l-3.651-20.586-79.9,88.544,26.872-5.148Z" transform="translate(-194.8 -280.669)" fill="#d2dcff" opacity="0.39"/>
          </g>
          <path id="Trazado_7152" data-name="Trazado 7152" d="M325.165,487.4l-205.05-53.807-.34-26.989,205.39,53.815Z" transform="translate(-119.774 -133.725)" fill="#e1e7ff"/>
          <path id="Trazado_7153" data-name="Trazado 7153" d="M578.382,404.3,282.373,495.2v-26.98L578.382,387.1Z" transform="translate(-76.983 -141.527)" fill="#92a5ea"/>
          <path id="Trazado_7154" data-name="Trazado 7154" d="M397.331,280.137a42.512,42.512,0,0,0,5.68,1.037c.048-5.425-1.477-12.512-2.693-17.906-1.949,5.377-3.268,9.781-4.685,14.3A2.13,2.13,0,0,0,397.331,280.137Z" transform="translate(-47.196 -191.045)" fill="#fec5a7"/>
          <path id="Trazado_7155" data-name="Trazado 7155" d="M453.683,295.2c.9,4.224,1.767,8.4,3.638,12.259,1.991,4.1,5.174,7.464,3.4,12.458a21.053,21.053,0,0,1-4.155,6.389c-4.654,5.485-9.62,10.922-15.828,13.984-5.766,2.843-15.56,4.851-21.4,1.578a36.415,36.415,0,0,1-6.907-5.537,10.445,10.445,0,0,1-3.094-4.117,3.122,3.122,0,0,1-.164-1.5,4.15,4.15,0,0,1,.87-1.656c2.787-3.8,6.121-8.823,6.4-13.755.278-4.961-1.386-11.157-1.912-16.165-.342-3.23-.575-6.886,1.352-9.337,1.906-2.427,5.039-2.7,7.4-4.348a52.859,52.859,0,0,1,10.26-5.357A56.139,56.139,0,0,1,442.306,277c2.221-.519,6.182-8.657,8.3-7.321C452.56,270.907,451.33,284.182,453.683,295.2Z" transform="translate(-43.622 -188.54)" fill="#fec5a7"/>
          <path id="Trazado_7156" data-name="Trazado 7156" d="M415.369,314.689c7.885-1.937,15.336-12.334,21.351-17.1a54.3,54.3,0,0,1,14.924-8.5c-1.047-9.308-.512-18.4-2.111-19.405-2.121-1.334-6.082,6.8-8.3,7.323a56.136,56.136,0,0,0-8.774,3.084,52.891,52.891,0,0,0-10.26,5.357c-2.357,1.648-5.49,1.921-7.4,4.347-1.926,2.453-1.694,6.109-1.352,9.339C413.955,303.938,415.493,309.834,415.369,314.689Z" transform="translate(-42.548 -188.54)" fill="#efae95"/>
          <path id="Trazado_7157" data-name="Trazado 7157" d="M452.135,238.951c4.891,4.844,6.2,12.595,6.389,19.813.283,10.73-1.354,21.686-5.737,31.425S441.14,308.382,432,312.873c-7.424,3.648-16.892,4.261-22.918-1.446-3.615-3.424-5.42-8.535-6.7-13.558-3.038-11.945-4.872-33.536-4.872-46.019,0-7.267,13.459-11.4,19.67-14.534C427.471,232.117,443.521,230.422,452.135,238.951Z" transform="translate(-46.682 -203.154)" fill="#fec5a7"/>
          <path id="Trazado_7158" data-name="Trazado 7158" d="M490.47,296.943a50.732,50.732,0,0,0-13.012-4c-7.017-1.078-14.17-.307-21.137,1.127q-4.144.852-8.228,2.021c-21.878,6.26-39.6,19.862-57.922,33.866a3.653,3.653,0,0,0-1.5,1.809,4.158,4.158,0,0,0,.277,2.314c5.272,16.447,9.086,33.415,12.892,50.353q10.241,45.588,20.484,91.174a5.608,5.608,0,0,0,1.564,3.312,4.464,4.464,0,0,0,2.1.718,233.273,233.273,0,0,0,103.387-6.969c2.043-.61,4.168-1.307,5.683-2.944,1.724-1.863,2.354-4.611,2.865-7.219a235.329,235.329,0,0,0,4.314-39.943c.307-13.669-1.792-26.875-2.32-40.418-.85-21.812-8.189-47.58-21.535-64.137a74.4,74.4,0,0,0-21.671-17.9C494.675,298.964,492.592,297.895,490.47,296.943Z" transform="translate(-49.028 -179.378)" fill="#930323"/>
          <path id="Trazado_7159" data-name="Trazado 7159" d="M438.6,228.518c-6.081.3-12.142,1.008-18.195,1.718-3.292.385-44.94,3.746-39.953,13.5a6.7,6.7,0,0,0,4.343,3.055c5.879,1.723,12.095.526,18.08-.676a17.165,17.165,0,0,0-8.99,4.624c-2,1.93-3.661,5.184-2.271,7.687a5.757,5.757,0,0,0,2.107,2.007,14.176,14.176,0,0,0,11.4,1.6c6.491-1.9,20.116-18.956,26.439-8.324,1.847,3.106,1.3,7.289-.04,10.7s-3.39,6.459-4.523,9.96a32.155,32.155,0,0,0-1.242,10.116,8.365,8.365,0,0,0,.98,4.62c.872,1.288,2.794,1.81,3.774.623a21.56,21.56,0,0,1,.8-10.473c.591-1.753,1.848-3.676,3.518-3.4a3.546,3.546,0,0,1,2.233,1.957c1.795,3.158,1.917,7.1,1.986,10.83q.169,9.22.337,18.441c.028,1.555.381,3.552,1.765,3.8,1.93.347,3.239-2.654,3.86-4.191,1.837,1.316,2.5,5.01,5.3,4.982,1.731-.017,2.967-1.873,3.6-3.659a16.97,16.97,0,0,0,.913-6.715,16.093,16.093,0,0,0,2.739,7.1,4.139,4.139,0,0,0,1.372,1.358,2.673,2.673,0,0,0,3.138-.788,5.789,5.789,0,0,0,1.253-3.452c.2-2.885-1.314-5.269-1.487-7.925-.167-2.556,1.129-5.632,1.751-8.076,1.454-5.728,2.992-11.44,4-17.291,1.412-8.185,1.766-16.8-.532-24.732s-7.57-15.113-14.71-17.734c-3.762-1.38-7.8-1.456-11.765-1.323Q439.593,228.469,438.6,228.518Z" transform="translate(-51.279 -204.992)" fill="#31177a"/>
          <path id="Trazado_7160" data-name="Trazado 7160" d="M298.706,423.395c-7.355-2.637-16.708-1.152-23.691.83a19.009,19.009,0,0,0-6.591,3.015c-4.48,3.466-5.726,10.475-.893,14.3,2.243,1.774,5.041,2.419,7.765,2.895,11.24,1.964,22.687,1.763,34.065,1.555,4.209-.076,2.846-2.507,1.89-5.643a54.447,54.447,0,0,0-2.064-6.6,19.448,19.448,0,0,0-6.811-8.56A17.908,17.908,0,0,0,298.706,423.395Z" transform="translate(-81.702 -127.579)" fill="#31177a"/>
          <path id="Trazado_7161" data-name="Trazado 7161" d="M311.224,437.483a54.448,54.448,0,0,0-2.064-6.6c-.269-.595-.565-1.173-.872-1.744-1.593,1.755-3.845,2.567-6.978,2.318-4.768-.381-8.485-1.919-13.311.014-3.764,1.508-7.088,3.682-11.073,4.551-4.069.888-9.022.529-12.384-2.317a7.913,7.913,0,0,0,2.962,4.971c2.243,1.774,5.041,2.419,7.765,2.9,11.24,1.964,22.687,1.762,34.065,1.555C313.543,443.05,312.18,440.618,311.224,437.483Z" transform="translate(-81.675 -124.715)" fill="#3a238e"/>
          <path id="Trazado_7162" data-name="Trazado 7162" d="M458.608,363.194c-3.925-15.732-9.614-36.148-22.306-44.951-12.876-8.93-27.489,14.391-31.078,26.932-2.665,9.316-10.993,60.839-14.62,91.351a6.815,6.815,0,0,1-6.056,6.249c-17.841,1.155-35.7,1.921-53.56,2.74-5.384.248-10.842.265-16.2.92-4.319.528-8.612.3-12.98.743a53.064,53.064,0,0,0-25.872,9.964c-3.546,2.586-6.934,5.775-8.67,10.065a5.473,5.473,0,0,0-.5,2.756,3.04,3.04,0,0,0,.268.9c5.185-.379,10.331-3.587,15.635-4.435a26.212,26.212,0,0,1,13.729,1.194,22.571,22.571,0,0,1,3.368,1.639,14.581,14.581,0,0,1,7.455,7.041,28.268,28.268,0,0,1,3.912,8.665,4.81,4.81,0,0,0,1.782.988c4.974,1.53,11.314,1.016,16.469,1.359,21.809,1.449,43.625,2.651,65.474,2.985,3.149.049,6.3.083,9.45.083,10.329.021,20.852-.217,30.648-3.848,8.106-3,15.735-8.717,20.148-16.684-.195-.063-.392-.123-.587-.186a52,52,0,0,0,5.413-13.222c2.976-11.454,2.807-23.576,2.816-35.5C462.755,401.574,463.266,381.872,458.608,363.194Z" transform="translate(-81.1 -169.856)" fill="#fec5a7"/>
          <path id="Trazado_7163" data-name="Trazado 7163" d="M450.189,363.195c-3.925-15.733-9.614-36.149-22.306-44.952-12.876-8.93-27.489,14.391-31.078,26.932-2.846,9.948-13.593,63.956-16.734,93.185-22.586,1.568-53.483,4.186-81.351,5.524,2.419,8.345,5.074,20,5.083,28.667,0,3.859-.455,11.892-.774,15.767,9.227,1.221,71.223,2.026,92.856,2.07,10.33.021,20.854-.217,30.65-3.848,8.106-3,15.734-8.717,20.148-16.684-.195-.063-.392-.123-.587-.186a51.976,51.976,0,0,0,5.413-13.222c2.976-11.454,2.807-23.576,2.816-35.5C454.336,401.574,454.847,381.872,450.189,363.195Z" transform="translate(-72.681 -169.856)" fill="#a30730"/>
          <path id="Trazado_7164" data-name="Trazado 7164" d="M311.931,453.655a102.483,102.483,0,0,0-3.244-48.062c-3.278.195-7.588.654-10.8.816,2.728,9.684,4.526,14,5.158,25.782.219,4.067-.312,17.023-.632,21.115C303.963,453.523,307.842,453.465,311.931,453.655Z" transform="translate(-72.9 -134.13)" fill="#ba0c42"/>
          <path id="Trazado_7165" data-name="Trazado 7165" d="M399.108,258.824a1.231,1.231,0,0,1,.523-.837,5.484,5.484,0,0,1,4.813-1.011,5.3,5.3,0,0,1,3.975,2.712,1.909,1.909,0,0,1,.231.553,1.6,1.6,0,0,1-.5,1.4c-.877.886-1.933.666-3,.578a13.655,13.655,0,0,1-3.777-.987,3.539,3.539,0,0,1-2.137-1.771A1.369,1.369,0,0,1,399.108,258.824Z" transform="translate(-46.262 -193.621)" fill="#0c0097"/>
          <path id="Trazado_7166" data-name="Trazado 7166" d="M399.973,266.445a2.384,2.384,0,0,0,3.011,1.789A2.736,2.736,0,0,0,404.6,264.9a2.386,2.386,0,0,0-3.011-1.789A2.736,2.736,0,0,0,399.973,266.445Z" transform="translate(-46.061 -191.155)" fill="#04061b"/>
          <path id="Trazado_7167" data-name="Trazado 7167" d="M408.871,272.861a3.323,3.323,0,0,0,.2-1.618,3.232,3.232,0,0,0-2.774-2.4,12.644,12.644,0,0,0-6.891,1.31c.34,2.464.712,4.839,1.117,7.06a6.41,6.41,0,0,0,2.451.015C405.392,276.667,407.96,275.4,408.871,272.861Z" transform="translate(-46.181 -188.852)" fill="#efae95"/>
          <path id="Trazado_7168" data-name="Trazado 7168" d="M404.339,288.514c2.741,1.706,1.6-7.974,1.276-9.262" transform="translate(-44.884 -184.653)" fill="none" stroke="#efae95" stroke-miterlimit="10" stroke-width="2"/>
          <g id="Grupo_1052" data-name="Grupo 1052" transform="translate(378.361 68.204)">
            <path id="Trazado_7169" data-name="Trazado 7169" d="M423.964,261.416a7.536,7.536,0,0,1,4.387-.988,7.9,7.9,0,0,1,6.311,5.238,10.286,10.286,0,0,1-.911,8.758,9.226,9.226,0,0,1-6.993,4.345,5.714,5.714,0,0,1-2.708-.37c-2.653-1.137-4.3-5.24-4.686-8.2A9.437,9.437,0,0,1,423.964,261.416Z" transform="translate(-419.306 -260.396)" fill="#efb59e"/>
            <path id="Trazado_7170" data-name="Trazado 7170" d="M419.6,270.317a11.924,11.924,0,0,1,1.981-3.5c1.215-1.488,2.931-2.843,4.835-2.625a4.188,4.188,0,0,1,3.445,5.2c-1.139,4.478-5.43,5.531-8.993,4.258A14.916,14.916,0,0,1,419.6,270.317Z" transform="translate(-419.228 -258.889)" fill="#efae95"/>
            <path id="Trazado_7171" data-name="Trazado 7171" d="M424.132,264.682a.216.216,0,0,1-.03-.031l0-.006a.341.341,0,0,1-.072-.256c.091-.827,1.628-.883,2.18-.889a3.457,3.457,0,0,1,2.977,2.215.143.143,0,0,1-.241.151,4.255,4.255,0,0,0-2.6-1.6c-.3-.008-1.535.046-1.737.36a.3.3,0,0,1-.446.077l0,.008A.2.2,0,0,1,424.132,264.682Z" transform="translate(-418.065 -259.155)" fill="#d69580"/>
            <path id="Trazado_7172" data-name="Trazado 7172" d="M424.674,269.3a4.288,4.288,0,0,1-.023-3.025c.081-.214.369-.07.33.14a5.43,5.43,0,0,0,.337,2.608,3.66,3.66,0,0,0,.941,1.646,2.254,2.254,0,0,1,.584.512.306.306,0,0,1-.219.462C425.5,271.671,425.017,270.246,424.674,269.3Z" transform="translate(-417.969 -258.09)" fill="#d69580"/>
          </g>
        </g>
        <g id="Grupo_1062" data-name="Grupo 1062" transform="translate(506.64 108.252)">
          <path id="Trazado_7173" data-name="Trazado 7173" d="M508.836,525.517h56.8c1.594-7.068,5.638-12.488,9.894-18.04a91.962,91.962,0,0,0,16.313-34.731c.566-2.408,1.018-5.079-.009-7.291-1.535-3.307-5.478-3.973-8.216-6.125-6.072-4.774-4.582-15.7.26-21.967S595.8,427.5,601.21,421.831s8.947-15.4,4.53-22.044c-3.766-5.66-11.25-6.1-17.5-4.865-3.983.787-8.712,1.8-11.555-1.394-4.286-4.809.4-12.546,4.459-17.588,13.215-16.408,20.962-38.106,21.457-60.092.143-6.3-.37-12.9-3.359-18.26-4.632-8.31-14.333-11.714-23.114-10.87-19.047,1.834-34.037,20.4-39.7,40.642s-3.939,41.986-2.173,63.085c.335,3.994.649,8.15-.63,11.9s-4.664,6.948-8.242,6.341c-3.955-.671-6.192-5.273-9.408-7.912-5.188-4.254-13.547-2.4-16.853,3.748-5,9.287,1.763,20.472,5.6,30.413A55.639,55.639,0,0,1,508.4,456a13.679,13.679,0,0,1-.889,5.273c-3.933,8.85-17.082,1.046-24.828,5.907-4.176,2.621-5.785,8.653-5.063,13.909s3.3,9.943,5.823,14.468C490.4,508.029,497.634,517.708,508.836,525.517Z" transform="translate(-477.457 -286.593)" fill="#ff97d3"/>
          <g id="Grupo_1054" data-name="Grupo 1054" transform="translate(56.197 11.176)">
            <path id="Trazado_7174" data-name="Trazado 7174" d="M522.935,520.471a1.044,1.044,0,0,1-.988-1.092c-.139-46.311,9.557-91.974,18.935-136.135,6.2-29.186,13.224-62.27,30.614-88.225a.926.926,0,0,1,1.382-.227,1.173,1.173,0,0,1,.2,1.531c-17.146,25.593-24.122,58.443-30.276,87.423-9.353,44.036-19.022,89.572-18.883,135.626a1.047,1.047,0,0,1-.985,1.1Z" transform="translate(-521.946 -294.576)" fill="#31177a"/>
          </g>
          <g id="Grupo_1055" data-name="Grupo 1055" transform="translate(27.664 120.149)">
            <path id="Trazado_7175" data-name="Trazado 7175" d="M512.178,394.99a.96.96,0,0,1-.8-.459c-4.237-6.575-8.235-13.461-11.884-20.468a1.163,1.163,0,0,1,.363-1.5.938.938,0,0,1,1.35.4c3.616,6.945,7.58,13.772,11.78,20.29a1.172,1.172,0,0,1-.231,1.527A.914.914,0,0,1,512.178,394.99Z" transform="translate(-499.357 -372.42)" fill="#31177a"/>
          </g>
          <g id="Grupo_1056" data-name="Grupo 1056" transform="translate(41.188 145.875)">
            <path id="Trazado_7176" data-name="Trazado 7176" d="M529.7,429.367a1,1,0,0,1-.921-.7,148.122,148.122,0,0,0-18.5-36.1,1.176,1.176,0,0,1,.172-1.537.926.926,0,0,1,1.388.192,150.381,150.381,0,0,1,18.786,36.653,1.136,1.136,0,0,1-.562,1.418A.885.885,0,0,1,529.7,429.367Z" transform="translate(-510.063 -390.797)" fill="#31177a"/>
          </g>
          <g id="Grupo_1057" data-name="Grupo 1057" transform="translate(8.249 187.554)">
            <path id="Trazado_7177" data-name="Trazado 7177" d="M529.974,472.191a.953.953,0,0,1-.773-.413,287.864,287.864,0,0,0-44.835-49.251,1.177,1.177,0,0,1-.169-1.537.925.925,0,0,1,1.388-.186,289.849,289.849,0,0,1,45.162,49.609,1.179,1.179,0,0,1-.157,1.54A.923.923,0,0,1,529.974,472.191Z" transform="translate(-483.987 -420.57)" fill="#31177a"/>
          </g>
          <g id="Grupo_1058" data-name="Grupo 1058" transform="translate(57.715 120.125)">
            <path id="Trazado_7178" data-name="Trazado 7178" d="M524.136,466.737a.9.9,0,0,1-.375-.083,1.139,1.139,0,0,1-.539-1.429c14.326-38.7,36.43-69,67.576-92.631a.93.93,0,0,1,1.374.286,1.17,1.17,0,0,1-.258,1.522c-30.818,23.381-52.69,53.362-66.864,91.657A.993.993,0,0,1,524.136,466.737Z" transform="translate(-523.147 -372.403)" fill="#31177a"/>
          </g>
          <g id="Grupo_1059" data-name="Grupo 1059" transform="translate(77.716 59.794)">
            <path id="Trazado_7179" data-name="Trazado 7179" d="M539.97,358.589a.9.9,0,0,1-.3-.05,1.125,1.125,0,0,1-.642-1.378c2.607-9.077,8.212-21.1,16.127-27.637a.924.924,0,0,1,1.382.223,1.175,1.175,0,0,1-.2,1.533c-7.537,6.224-12.91,17.794-15.423,26.547A1,1,0,0,1,539.97,358.589Z" transform="translate(-538.981 -329.306)" fill="#31177a"/>
          </g>
          <g id="Grupo_1060" data-name="Grupo 1060" transform="translate(56.251 201.005)">
            <path id="Trazado_7180" data-name="Trazado 7180" d="M522.977,467.344a.926.926,0,0,1-.6-.227,1.176,1.176,0,0,1-.181-1.536,359.643,359.643,0,0,1,27.723-35.08.922.922,0,0,1,1.4,0,1.182,1.182,0,0,1,0,1.55,357.313,357.313,0,0,0-27.559,34.868A.953.953,0,0,1,522.977,467.344Z" transform="translate(-521.989 -430.178)" fill="#31177a"/>
          </g>
          <g id="Grupo_1061" data-name="Grupo 1061" transform="translate(89.282 185.214)">
            <path id="Trazado_7181" data-name="Trazado 7181" d="M549.126,430.934a.947.947,0,0,1-.724-.349,1.182,1.182,0,0,1,.051-1.548L558,419.192a.923.923,0,0,1,1.4.055,1.182,1.182,0,0,1-.05,1.548L549.8,430.64A.929.929,0,0,1,549.126,430.934Z" transform="translate(-548.138 -418.898)" fill="#31177a"/>
          </g>
        </g>
        <g id="Grupo_1070" data-name="Grupo 1070" transform="translate(400.367 243.546)">
          <path id="Trazado_7182" data-name="Trazado 7182" d="M437.647,486.79c-14.767-10.883-25.034-28.064-31.529-46.35s-9.542-37.817-12.468-57.2c10.02,2.66,20.053,5.483,29.552,9.908s18.5,10.537,25.428,18.992c8.3,10.134,13.224,23.125,16.632,36.28a196.359,196.359,0,0,1,4.894,30.424Z" transform="translate(-393.239 -383.239)" fill="#6a59e3"/>
          <g id="Grupo_1063" data-name="Grupo 1063" transform="translate(0 0.705)">
            <path id="Trazado_7183" data-name="Trazado 7183" d="M444.05,486.452a32.305,32.305,0,0,1-1.295-4.814,275.818,275.818,0,0,0-49.142-95.778,1.372,1.372,0,0,1,.1-1.8,1.071,1.071,0,0,1,1.621.112,279.928,279.928,0,0,1,46.725,87.087c.572-15.516,7.469-33.393,15.97-43.9a1.071,1.071,0,0,1,1.623-.1,1.371,1.371,0,0,1,.088,1.8c-10.07,12.441-17.729,36.011-14.735,52.019q.633,2.278,1.216,4.551Z" transform="translate(-393.325 -383.742)" fill="#31177a"/>
          </g>
          <g id="Grupo_1064" data-name="Grupo 1064" transform="translate(37.681 21.176)">
            <path id="Trazado_7184" data-name="Trazado 7184" d="M425.064,445.457a1.192,1.192,0,0,1-1.133-1.065c-1.939-13.03-.711-32.784,9.134-45.578a1.071,1.071,0,0,1,1.619-.143,1.369,1.369,0,0,1,.129,1.795c-8.736,11.352-10.621,30.033-8.614,43.51a1.266,1.266,0,0,1-.947,1.464A.957.957,0,0,1,425.064,445.457Z" transform="translate(-423.155 -398.366)" fill="#31177a"/>
          </g>
          <g id="Grupo_1065" data-name="Grupo 1065" transform="translate(25.019 11.112)">
            <path id="Trazado_7185" data-name="Trazado 7185" d="M420.98,391.177a1.1,1.1,0,0,0-.528.347,34.468,34.468,0,0,0-5.043,7.674c-1.938,4.4-2.228,9.371-2.277,12.729a31.059,31.059,0,0,0,1.191,7.264,42.538,42.538,0,0,1,.9,4.333,1.2,1.2,0,0,0,1.137,1.1,1.062,1.062,0,0,0,.162-.013,1.261,1.261,0,0,0,.978-1.439,44.465,44.465,0,0,0-.961-4.638,29.309,29.309,0,0,1-1.112-6.563c.046-3.113.307-7.708,2.045-11.653a31.831,31.831,0,0,1,4.685-7.088,1.366,1.366,0,0,0,.088-1.54C421.818,391.533,421.392,391.37,420.98,391.177Z" transform="translate(-413.131 -391.177)" fill="#31177a"/>
          </g>
          <g id="Grupo_1066" data-name="Grupo 1066" transform="translate(13.922 4.338)">
            <path id="Trazado_7186" data-name="Trazado 7186" d="M407.274,401.57a25.443,25.443,0,0,1,1.186-15.025h-.077a14.442,14.442,0,0,1-2.36-.207,28.383,28.383,0,0,0-.976,15.865c.011.045,1.228,4.646,1.888,5.332a1.074,1.074,0,0,0,1.624-.059,1.379,1.379,0,0,0,.067-1.655C408.329,405.2,407.379,402.018,407.274,401.57Z" transform="translate(-404.347 -386.338)" fill="#31177a"/>
            <path id="Trazado_7187" data-name="Trazado 7187" d="M407.64,400.151l0,0Z" transform="translate(-403.48 -380.814)" fill="#31177a"/>
          </g>
          <g id="Grupo_1067" data-name="Grupo 1067" transform="translate(58.791 68.973)">
            <path id="Trazado_7188" data-name="Trazado 7188" d="M441.018,463.265a1.058,1.058,0,0,1-.162-.013,1.259,1.259,0,0,1-.978-1.439,56.583,56.583,0,0,1,12.407-28.9,1.07,1.07,0,0,1,1.623-.069,1.372,1.372,0,0,1,.061,1.8,53.892,53.892,0,0,0-11.814,27.519A1.2,1.2,0,0,1,441.018,463.265Z" transform="translate(-439.867 -432.509)" fill="#31177a"/>
          </g>
          <g id="Grupo_1068" data-name="Grupo 1068" transform="translate(13.263 63.903)">
            <path id="Trazado_7189" data-name="Trazado 7189" d="M432.187,439.645a1.066,1.066,0,0,1-.6-.186,46.287,46.287,0,0,0-26.595-8.013,1.258,1.258,0,0,1-1.17-1.25,1.222,1.222,0,0,1,1.128-1.3,48.155,48.155,0,0,1,27.835,8.385,1.357,1.357,0,0,1,.38,1.751A1.128,1.128,0,0,1,432.187,439.645Z" transform="translate(-403.825 -428.888)" fill="#31177a"/>
          </g>
          <g id="Grupo_1069" data-name="Grupo 1069" transform="translate(6.753 42.474)">
            <path id="Trazado_7190" data-name="Trazado 7190" d="M426.621,428.445a1.051,1.051,0,0,1-.3-.043,1.25,1.25,0,0,1-.85-1.148,10.617,10.617,0,0,0-2.526-1.9l-.182-.113c-6.745-4.277-14.377-9.115-22.6-9.115h-.33a1.28,1.28,0,0,1-.033-2.546l.352,0c8.843,0,17.1,5.234,23.75,9.451l.173.109c2.152,1.348,4.051,2.7,3.652,4.361A1.176,1.176,0,0,1,426.621,428.445Z" transform="translate(-398.671 -413.58)" fill="#31177a"/>
          </g>
        </g>
        <g id="Grupo_1071" data-name="Grupo 1071" transform="translate(468.316 263.893)">
          <path id="Trazado_7191" data-name="Trazado 7191" d="M471.615,477.132c10.847-8.5,18.2-21.613,22.712-35.463s6.411-28.547,8.224-43.132c-7.451,2.231-14.91,4.585-21.937,8.125a53.841,53.841,0,0,0-18.672,14.829c-6.019,7.786-9.455,17.633-11.751,27.564a147.349,147.349,0,0,0-3.073,22.9Z" transform="translate(-447.117 -397.469)" fill="#b5c1fb"/>
          <path id="Trazado_7192" data-name="Trazado 7192" d="M500.954,399.961a1.373,1.373,0,0,0,.024-1.8,1.072,1.072,0,0,0-1.624-.028c-3.059,3.291-6,6.721-8.851,10.25a36.49,36.49,0,0,0,.63-6.335A1.219,1.219,0,0,0,490,400.759h-.015a1.214,1.214,0,0,0-1.148,1.257,33.366,33.366,0,0,1-1.977,11.006l0,.017q-5.751,7.574-10.837,15.746c.476-6.418.342-13.771-1.556-18.768a1.113,1.113,0,0,0-1.506-.68,1.327,1.327,0,0,0-.613,1.667c2.01,5.289,1.912,14.548.908,22.358q-4.642,7.906-8.612,16.256c.907-9.413.207-21.019-2.921-29.76a1.114,1.114,0,0,0-1.492-.714,1.323,1.323,0,0,0-.644,1.652c4.066,11.364,3.851,27.814,1.3,37.152v.011q-2.948,6.938-5.423,14.089a1.319,1.319,0,0,0,.664,1.643,1.04,1.04,0,0,0,.409.084,1.16,1.16,0,0,0,1.074-.82q.862-2.5,1.786-4.984a1.094,1.094,0,0,0,.632-.417c1.957-2.761,7.118-9.372,12.782-11.174,4.912-1.562,9.96-1.973,15.575-2.314a1.229,1.229,0,0,0,1.084-1.34,1.176,1.176,0,0,0-1.21-1.2c-5.544.335-10.947.773-16.083,2.406-3.85,1.225-7.374,4.257-10.1,7.25q3.515-8.53,7.74-16.69a1.2,1.2,0,0,0,.183-.169c6.315-9.36,16.357-15.564,26.863-16.6a1.243,1.243,0,0,0,1.043-1.38,1.183,1.183,0,0,0-1.245-1.156A38.459,38.459,0,0,0,475.4,434.6c.015-.106.029-.213.044-.321A199.421,199.421,0,0,1,500.954,399.961Z" transform="translate(-444.942 -397.774)" fill="#31177a"/>
        </g>
      </g>
      <g id="Grupo_1073" data-name="Grupo 1073" transform="translate(208.237 187.251)">
        <path id="Trazado_7193" data-name="Trazado 7193" d="M227.13,347.849a1.139,1.139,0,0,1-1.019-.679c-8.567-18.056-7.881-41.2,2.1-70.756.745-2.2,1.516-4.4,2.286-6.6a186.935,186.935,0,0,0,6.366-20.667c4.654-20.7,2.8-44.1-5.838-73.643a1.307,1.307,0,0,1,.739-1.6,1.129,1.129,0,0,1,1.448.819c8.775,30.014,10.645,53.858,5.881,75.044a189.01,189.01,0,0,1-6.453,20.975c-.768,2.185-1.535,4.373-2.276,6.568-9.737,28.836-10.462,51.3-2.216,68.676a1.345,1.345,0,0,1-.483,1.72A1.054,1.054,0,0,1,227.13,347.849Z" transform="translate(-220.166 -173.838)" fill="#31177a"/>
      </g>
    </g>
  </g>
</svg>
