<svg xmlns="http://www.w3.org/2000/svg" width="145.78" height="50" viewBox="0 0 145.78 50">
  <g id="Grupo_1002" data-name="Grupo 1002" transform="translate(-1.336 -0.632)">
    <text id="Pilalá" transform="translate(32.116 42.632)" fill="#fff" font-size="42" font-family="PoetsenOne-Regular, Poetsen One" letter-spacing="0.025em"><tspan x="0" y="0">Pilalá</tspan></text>
    <g id="Grupo_1001" data-name="Grupo 1001" transform="translate(1.336 1.172)">
      <path id="Trazado_7046" data-name="Trazado 7046" d="M7.983,17.692a6.79,6.79,0,0,0-2.542,7.957,10.38,10.38,0,0,1,.616,2.078,2.1,2.1,0,0,1-1.509,2.552C7.8,32.24,14.119,32.588,17.2,28.39a7.8,7.8,0,0,0-.7-10.054A6.905,6.905,0,0,0,7.983,17.692Z" transform="translate(0.166 6.259)" fill="none"/>
      <path id="Trazado_7047" data-name="Trazado 7047" d="M9.586,13.341l.006,0C2.018,15.877-.741,24.459,4.116,31.116a14.706,14.706,0,0,0-1.981,1.1c-.988.754-.994,1.349-.107,2.209a14.11,14.11,0,0,0,6.456,3.311,13.974,13.974,0,0,0,8.788-.172,12.482,12.482,0,0,0,8.189-10.021,26.33,26.33,0,0,0,.355-2.734l0-.029C22.935,12.749,14.944,12.192,9.586,13.341ZM18.679,30.07c-3.078,4.2-9.4,3.849-12.648,1.889A2.1,2.1,0,0,0,7.54,29.406a10.38,10.38,0,0,0-.616-2.078,6.79,6.79,0,0,1,2.542-7.957,6.905,6.905,0,0,1,8.513.644A7.8,7.8,0,0,1,18.679,30.07Z" transform="translate(-1.316 4.58)" fill="#ff9e00"/>
      <path id="Trazado_7048" data-name="Trazado 7048" d="M14.4,14.889q-4.9-4.8-9.8-9.613c-1.4-1.375-2.6-1.042-3.124.883a2.932,2.932,0,0,0,.439,2.633c.831,1.1,1.726,2.151,2.637,3.185,1.426,1.616,2.884,3.2,4.34,4.793a5.294,5.294,0,0,0,.724.543,14.786,14.786,0,0,1,7.888.289l-2.649-2.344C14.635,15.091,14.5,15,14.4,14.889Z" transform="translate(-1.336 0.607)" fill="#ff9e00"/>
      <path id="Trazado_7049" data-name="Trazado 7049" d="M17.653,15.987Q14.877,9.233,12.1,2.481a7.208,7.208,0,0,0-.332-.726,1.19,1.19,0,0,0-1.76-.575A3.446,3.446,0,0,0,8.08,4.563a12.008,12.008,0,0,0,.495,2.483c.985,3.091,2.024,6.164,3.039,9.246.051.153.084.313.169.641l-.084-.068,2.595,2.325a11.435,11.435,0,0,1,6.1,5.239l-2.3-7.414C17.89,16.54,17.767,16.266,17.653,15.987Z" transform="translate(1.81 -1)" fill="#ffad00"/>
      <path id="Trazado_7050" data-name="Trazado 7050" d="M19.59,2.472A3.113,3.113,0,0,0,16.847,4.84a27.021,27.021,0,0,0-.638,3.2c-.411,2.558-.79,5.122-1.183,7.683-.021.132-.053.261-.126.619l2.3,7.414a21.359,21.359,0,0,1,2.3,5.933q.982-12.737,1.937-25.476C21.536,2.849,20.955,2.291,19.59,2.472Z" transform="translate(5.006 -0.327)" fill="#ffbc00"/>
    </g>
  </g>
</svg>
