<svg xmlns="http://www.w3.org/2000/svg" width="162.207" height="47.581" viewBox="0 0 162.207 47.581">
  <g id="Grupo_1336" data-name="Grupo 1336" transform="translate(-177.344 -189.745)">
    <g id="Grupo_1334" data-name="Grupo 1334" transform="translate(213.866 197.03)">
      <path id="Trazado_7291" data-name="Trazado 7291" d="M206.614,232.152a5.454,5.454,0,0,1-3.814-1.065,4.162,4.162,0,0,1-1.113-3.151c0-.411.024-1.065.072-1.967s.117-1.965.212-3.2.2-2.573.309-4.027.228-2.938.356-4.453q.234-2.8.4-4.808t.261-3.46q.092-1.443.167-2.415c.047-.648.077-1.215.093-1.706s.033-.939.048-1.35.024-.852.024-1.326a.616.616,0,0,1,.237-.545.826.826,0,0,1,.474-.165c.819,0,1.721-.024,2.7-.072s1.958-.1,2.938-.167,1.926-.119,2.843-.165,1.721-.07,2.416-.07a16.417,16.417,0,0,1,5.212.734,8.2,8.2,0,0,1,5.52,5.52,14.864,14.864,0,0,1,.638,4.547,19.567,19.567,0,0,1-.734,5.377,13.121,13.121,0,0,1-2.3,4.571,11.176,11.176,0,0,1-4.027,3.175,13.431,13.431,0,0,1-5.875,1.184,12.13,12.13,0,0,1-3.458-.426l-.663,8.718a1.022,1.022,0,0,1-.191.545.734.734,0,0,1-.569.165Zm7.674-27c-.41,0-.869.024-1.373.071s-1.043.1-1.611.168q-.095,1.987-.237,4.831t-.378,5.97a9.1,9.1,0,0,0,1.4.261,12.5,12.5,0,0,0,1.256.07,4.285,4.285,0,0,0,2.677-.782,5.491,5.491,0,0,0,1.586-1.919,8,8,0,0,0,.758-2.369,14.326,14.326,0,0,0,.189-2.132,4.617,4.617,0,0,0-.923-3.1A4.276,4.276,0,0,0,214.288,205.148Z" transform="translate(-201.687 -192.879)" fill="#5e35b1"/>
      <path id="Trazado_7292" data-name="Trazado 7292" d="M225.591,232.69a7.727,7.727,0,0,1-2.393-.308,3.536,3.536,0,0,1-1.467-.876,3.1,3.1,0,0,1-.758-1.4,7.726,7.726,0,0,1-.215-1.92q0-.709.072-2.012t.26-3.6q.189-2.3.452-5.827t.639-8.741a2.351,2.351,0,0,1,.237-1.23,1.232,1.232,0,0,1,.758-.143h1.847a8.291,8.291,0,0,1,2.393.285,3.337,3.337,0,0,1,1.469.852,3.094,3.094,0,0,1,.758,1.373,7.03,7.03,0,0,1,.213,1.8q0,.711-.095,2.132t-.261,3.862q-.167,2.439-.449,6.063t-.711,8.742a1.248,1.248,0,0,1-.237.758,1.2,1.2,0,0,1-.806.189Zm-3.364-31.646a3.6,3.6,0,0,1,1.374-2.986,5.782,5.782,0,0,1,3.7-1.089,4.356,4.356,0,0,1,2.96.83,2.814,2.814,0,0,1,.926,2.2,3.739,3.739,0,0,1-1.3,2.914,5.564,5.564,0,0,1-3.814,1.16Q222.229,204.074,222.228,201.044Z" transform="translate(-192.145 -193.416)" fill="#5e35b1"/>
      <path id="Trazado_7293" data-name="Trazado 7293" d="M235.887,232.9a5.151,5.151,0,0,1-4.216-1.563q-1.281-1.564-1.28-5.166,0-.567.07-1.421t.191-2.2q.117-1.35.308-3.34t.4-4.832q.212-2.845.473-6.679t.545-8.907a2.37,2.37,0,0,1,.239-1.232,1.226,1.226,0,0,1,.756-.143h1.848a7.271,7.271,0,0,1,2.369.332,3.928,3.928,0,0,1,1.515.9,3.224,3.224,0,0,1,.806,1.3,4.99,4.99,0,0,1,.237,1.539q0,.947-.119,2.725t-.308,4q-.191,2.23-.38,4.643t-.38,4.619q-.189,2.2-.308,3.956t-.119,2.654a2.67,2.67,0,0,0,.452,1.752,2.583,2.583,0,0,0,.969.734,4.322,4.322,0,0,0,.972.284c.3.048.45.152.45.308a9.082,9.082,0,0,1-.237,2.061,4.945,4.945,0,0,1-.852,1.848,4.331,4.331,0,0,1-1.682,1.326A6.464,6.464,0,0,1,235.887,232.9Z" transform="translate(-187.326 -193.195)" fill="#5e35b1"/>
      <path id="Trazado_7294" data-name="Trazado 7294" d="M239.769,223.8a7.516,7.516,0,0,1,3.838-6.681q3.837-2.417,11.323-2.606c.03-.347.054-.639.069-.876s.025-.528.025-.876a4.486,4.486,0,0,0-.569-2.415,2.609,2.609,0,0,0-2.369-.9,3.881,3.881,0,0,0-1.611.285,2.6,2.6,0,0,0-.995.782,4.13,4.13,0,0,0-.615,1.208,15.408,15.408,0,0,0-.428,1.563.677.677,0,0,1-.426.545,3.324,3.324,0,0,1-1.041.119q-4.834,0-4.834-3.647a6.026,6.026,0,0,1,.687-2.8,6.551,6.551,0,0,1,2.039-2.3,10.69,10.69,0,0,1,3.386-1.539,17.741,17.741,0,0,1,4.738-.569q5.259,0,7.628,2.18a7.949,7.949,0,0,1,2.369,6.157c0,.35-.041.972-.119,1.872s-.176,1.848-.285,2.843-.206,1.934-.284,2.819-.119,1.5-.119,1.847a2.588,2.588,0,0,0,.426,1.682,2.232,2.232,0,0,0,.971.687,8.818,8.818,0,0,0,.972.284.464.464,0,0,1,.426.474,8.449,8.449,0,0,1-.285,2.132,6,6,0,0,1-.923,1.989,4.734,4.734,0,0,1-1.754,1.469,5.933,5.933,0,0,1-2.723.569,4.759,4.759,0,0,1-3.412-1.089,5.534,5.534,0,0,1-1.515-3.032,11,11,0,0,1-2.962,2.891,8.372,8.372,0,0,1-4.762,1.23,10.409,10.409,0,0,1-2.677-.332,5.646,5.646,0,0,1-2.178-1.089,5.321,5.321,0,0,1-1.469-1.967A7.026,7.026,0,0,1,239.769,223.8Zm14.733-5.4a15.283,15.283,0,0,0-2.415.189,8.686,8.686,0,0,0-2.108.593,4.073,4.073,0,0,0-1.493,1.065,2.4,2.4,0,0,0-.569,1.611,1.636,1.636,0,0,0,.687,1.515,2.764,2.764,0,0,0,1.493.428,3.794,3.794,0,0,0,2.866-1.352,6.413,6.413,0,0,0,1.019-1.682A7.281,7.281,0,0,0,254.5,218.4Z" transform="translate(-182.634 -190.351)" fill="#5e35b1"/>
      <path id="Trazado_7295" data-name="Trazado 7295" d="M264.78,232.9a5.155,5.155,0,0,1-4.217-1.563q-1.278-1.564-1.278-5.166c0-.378.023-.852.07-1.421s.111-1.3.191-2.2.18-2.015.307-3.34.26-2.938.4-4.832.3-4.121.474-6.679.354-5.527.545-8.907a2.359,2.359,0,0,1,.237-1.232,1.235,1.235,0,0,1,.758-.143h1.847a7.281,7.281,0,0,1,2.371.332,3.933,3.933,0,0,1,1.514.9,3.207,3.207,0,0,1,.806,1.3,4.947,4.947,0,0,1,.239,1.539q0,.947-.119,2.725t-.309,4q-.191,2.23-.38,4.643t-.378,4.619q-.189,2.2-.309,3.956t-.119,2.654a2.679,2.679,0,0,0,.452,1.752,2.575,2.575,0,0,0,.971.734,4.312,4.312,0,0,0,.971.284c.3.048.452.152.452.308a9.167,9.167,0,0,1-.237,2.061,4.948,4.948,0,0,1-.854,1.848A4.308,4.308,0,0,1,267.5,232.4,6.456,6.456,0,0,1,264.78,232.9Z" transform="translate(-172.871 -193.195)" fill="#5e35b1"/>
      <path id="Trazado_7296" data-name="Trazado 7296" d="M268.662,228.049a7.515,7.515,0,0,1,3.836-6.681q3.837-2.417,11.323-2.606c.031-.347.054-.639.07-.876s.026-.528.026-.876a4.486,4.486,0,0,0-.569-2.415,2.61,2.61,0,0,0-2.369-.9,3.888,3.888,0,0,0-1.613.285,2.611,2.611,0,0,0-.995.782,4.17,4.17,0,0,0-.615,1.208,15.814,15.814,0,0,0-.426,1.563.68.68,0,0,1-.426.545,3.335,3.335,0,0,1-1.043.119q-4.832,0-4.832-3.647a6.008,6.008,0,0,1,.687-2.8,6.546,6.546,0,0,1,2.037-2.3,10.715,10.715,0,0,1,3.388-1.539,17.73,17.73,0,0,1,4.737-.569q5.259,0,7.628,2.18a7.944,7.944,0,0,1,2.369,6.157c0,.35-.039.972-.119,1.872s-.174,1.848-.284,2.843-.206,1.934-.285,2.819-.119,1.5-.119,1.847a2.6,2.6,0,0,0,.426,1.682,2.244,2.244,0,0,0,.972.687,8.9,8.9,0,0,0,.971.284.463.463,0,0,1,.426.474,8.444,8.444,0,0,1-.284,2.132,6,6,0,0,1-.923,1.989,4.734,4.734,0,0,1-1.754,1.469,5.94,5.94,0,0,1-2.725.569,4.758,4.758,0,0,1-3.41-1.089,5.525,5.525,0,0,1-1.517-3.032,11.013,11.013,0,0,1-2.96,2.891,8.376,8.376,0,0,1-4.762,1.23,10.4,10.4,0,0,1-2.677-.332,5.663,5.663,0,0,1-2.18-1.089,5.3,5.3,0,0,1-1.467-1.967A7.027,7.027,0,0,1,268.662,228.049Zm14.733-5.4a15.273,15.273,0,0,0-2.415.189,8.681,8.681,0,0,0-2.109.593,4.072,4.072,0,0,0-1.493,1.065,2.4,2.4,0,0,0-.569,1.611,1.639,1.639,0,0,0,.687,1.515,2.772,2.772,0,0,0,1.493.428,3.8,3.8,0,0,0,2.867-1.352,6.411,6.411,0,0,0,1.017-1.682A7.241,7.241,0,0,0,283.395,222.648ZM282.3,204.74a1.468,1.468,0,0,1-.734-.239,4.363,4.363,0,0,1-.78-.591,4.005,4.005,0,0,1-.641-.758,1.34,1.34,0,0,1-.261-.687,3.809,3.809,0,0,1,.474-.806q.473-.711,1.185-1.752t1.563-2.276q.851-1.231,1.61-2.321a2.472,2.472,0,0,1,.474-.569,1.041,1.041,0,0,1,.615-.141,5.132,5.132,0,0,1,1.469.284,11.857,11.857,0,0,1,1.754.711,7.918,7.918,0,0,1,1.467.924,1.323,1.323,0,0,1,.617.923,1.949,1.949,0,0,1-.545.995,16.677,16.677,0,0,1-1.4,1.47q-.853.8-1.9,1.656t-2.037,1.563q-.995.713-1.776,1.163A2.728,2.728,0,0,1,282.3,204.74Z" transform="translate(-168.179 -194.601)" fill="#5e35b1"/>
    </g>
    <g id="Grupo_1335" data-name="Grupo 1335" transform="translate(177.344 189.745)">
      <path id="Trazado_7297" data-name="Trazado 7297" d="M184.632,207.865a7.522,7.522,0,0,0-2.816,8.817,11.518,11.518,0,0,1,.683,2.3,2.323,2.323,0,0,1-1.671,2.827c3.6,2.172,10.6,2.558,14.014-2.093a8.643,8.643,0,0,0-.777-11.14A7.648,7.648,0,0,0,184.632,207.865Z" transform="translate(-175.601 -181.327)" fill="none"/>
      <path id="Trazado_7298" data-name="Trazado 7298" d="M186.483,203.13l.007.006c-8.393,2.8-11.449,12.314-6.067,19.69a16.353,16.353,0,0,0-2.195,1.223c-1.094.836-1.1,1.494-.119,2.447a15.641,15.641,0,0,0,7.153,3.67,15.472,15.472,0,0,0,9.737-.192,13.826,13.826,0,0,0,9.074-11.1,29,29,0,0,0,.393-3.029l0-.033C201.276,202.475,192.422,201.858,186.483,203.13Zm10.078,18.536c-3.412,4.651-10.412,4.265-14.014,2.093a2.323,2.323,0,0,0,1.671-2.827,11.516,11.516,0,0,0-.683-2.3,7.522,7.522,0,0,1,2.816-8.817,7.648,7.648,0,0,1,9.432.714A8.643,8.643,0,0,1,196.561,221.667Z" transform="translate(-177.321 -183.275)" fill="#ff9e00"/>
      <path id="Trazado_7299" data-name="Trazado 7299" d="M191.814,205.051q-5.433-5.322-10.862-10.651c-1.553-1.524-2.878-1.155-3.464.978a3.251,3.251,0,0,0,.488,2.918c.92,1.217,1.913,2.382,2.923,3.527,1.58,1.791,3.194,3.551,4.808,5.313a5.793,5.793,0,0,0,.8.6,16.382,16.382,0,0,1,8.742.321l-2.935-2.6C192.08,205.275,191.936,205.17,191.814,205.051Z" transform="translate(-177.344 -187.881)" fill="#ff9e00"/>
      <path id="Trazado_7300" data-name="Trazado 7300" d="M195.26,206.352q-3.076-7.483-6.151-14.965a8.479,8.479,0,0,0-.366-.806,1.318,1.318,0,0,0-1.95-.636,3.816,3.816,0,0,0-2.138,3.749,13.209,13.209,0,0,0,.548,2.752c1.091,3.424,2.241,6.829,3.368,10.244.056.17.092.347.186.711l-.091-.075,2.875,2.576a12.67,12.67,0,0,1,6.76,5.8l-2.548-8.214C195.526,206.965,195.388,206.661,195.26,206.352Z" transform="translate(-173.695 -189.745)" fill="#ffad00"/>
      <path id="Trazado_7301" data-name="Trazado 7301" d="M197.242,191.341a3.448,3.448,0,0,0-3.038,2.624,29.78,29.78,0,0,0-.707,3.547c-.456,2.836-.876,5.676-1.311,8.513-.023.147-.059.291-.14.687l2.548,8.214a23.654,23.654,0,0,1,2.545,6.574q1.087-14.113,2.147-28.227C199.4,191.76,198.755,191.14,197.242,191.341Z" transform="translate(-169.989 -188.965)" fill="#ffbc00"/>
    </g>
  </g>
</svg>
