<svg xmlns="http://www.w3.org/2000/svg" width="145.496" height="42.679" viewBox="0 0 145.496 42.679">
  <g id="Grupo_1336" data-name="Grupo 1336" transform="translate(-177.344 -189.745)">
    <g id="Grupo_1334" data-name="Grupo 1334" transform="translate(210.103 196.28)">
      <path id="Trazado_7291" data-name="Trazado 7291" d="M206.106,228.638a4.892,4.892,0,0,1-3.421-.955,3.733,3.733,0,0,1-1-2.826c0-.369.022-.955.065-1.764s.1-1.763.19-2.868.178-2.308.277-3.612.2-2.635.319-3.994q.21-2.507.361-4.313t.234-3.1q.083-1.294.149-2.167c.042-.581.069-1.09.083-1.53s.03-.842.043-1.211.022-.764.022-1.19a.553.553,0,0,1,.213-.488.741.741,0,0,1,.425-.148c.735,0,1.544-.022,2.421-.065s1.756-.092,2.635-.149,1.728-.106,2.55-.148,1.544-.063,2.167-.063a14.726,14.726,0,0,1,4.675.658,7.356,7.356,0,0,1,4.951,4.951,13.332,13.332,0,0,1,.572,4.079,17.551,17.551,0,0,1-.658,4.823,11.769,11.769,0,0,1-2.06,4.1,10.024,10.024,0,0,1-3.612,2.848,12.047,12.047,0,0,1-5.27,1.062,10.88,10.88,0,0,1-3.1-.382l-.595,7.82a.916.916,0,0,1-.171.488.659.659,0,0,1-.51.148Zm6.883-24.222c-.367,0-.779.022-1.231.063s-.935.094-1.445.151q-.085,1.782-.213,4.333t-.339,5.355a8.163,8.163,0,0,0,1.254.234,11.213,11.213,0,0,0,1.126.063,3.844,3.844,0,0,0,2.4-.7,4.925,4.925,0,0,0,1.422-1.721,7.178,7.178,0,0,0,.68-2.125,12.849,12.849,0,0,0,.17-1.912,4.142,4.142,0,0,0-.828-2.784A3.835,3.835,0,0,0,212.99,204.416Z" transform="translate(-201.687 -193.411)" fill="#fff"/>
      <path id="Trazado_7292" data-name="Trazado 7292" d="M225.094,229.01a6.931,6.931,0,0,1-2.146-.276,3.171,3.171,0,0,1-1.316-.786,2.779,2.779,0,0,1-.68-1.253,6.93,6.93,0,0,1-.192-1.723q0-.636.065-1.8t.233-3.231q.17-2.059.405-5.227t.573-7.84a2.109,2.109,0,0,1,.213-1.1,1.1,1.1,0,0,1,.68-.128h1.657a7.437,7.437,0,0,1,2.146.256,2.993,2.993,0,0,1,1.318.764,2.775,2.775,0,0,1,.68,1.231,6.305,6.305,0,0,1,.191,1.615q0,.638-.085,1.912t-.234,3.464q-.149,2.188-.4,5.438t-.638,7.842a1.12,1.12,0,0,1-.213.68,1.072,1.072,0,0,1-.723.17Zm-3.017-28.386a3.233,3.233,0,0,1,1.233-2.678,5.186,5.186,0,0,1,3.315-.977,3.907,3.907,0,0,1,2.655.744,2.524,2.524,0,0,1,.83,1.976,3.353,3.353,0,0,1-1.169,2.613,4.991,4.991,0,0,1-3.421,1.04Q222.077,203.342,222.076,200.624Z" transform="translate(-195.093 -193.782)" fill="#fff"/>
      <path id="Trazado_7293" data-name="Trazado 7293" d="M235.32,229.24a4.621,4.621,0,0,1-3.782-1.4q-1.149-1.4-1.148-4.633,0-.509.063-1.274t.171-1.976q.105-1.211.276-3t.362-4.335q.19-2.552.424-5.991t.488-7.99a2.126,2.126,0,0,1,.214-1.1,1.1,1.1,0,0,1,.678-.128h1.658a6.522,6.522,0,0,1,2.125.3,3.523,3.523,0,0,1,1.359.809,2.892,2.892,0,0,1,.723,1.168,4.476,4.476,0,0,1,.213,1.381q0,.85-.106,2.444t-.276,3.589q-.172,2-.34,4.165t-.34,4.144q-.17,1.976-.276,3.549t-.106,2.381a2.4,2.4,0,0,0,.405,1.572,2.317,2.317,0,0,0,.869.658,3.877,3.877,0,0,0,.872.254c.269.043.4.136.4.276a8.146,8.146,0,0,1-.213,1.849,4.435,4.435,0,0,1-.764,1.658,3.884,3.884,0,0,1-1.509,1.19A5.8,5.8,0,0,1,235.32,229.24Z" transform="translate(-191.763 -193.629)" fill="#fff"/>
      <path id="Trazado_7294" data-name="Trazado 7294" d="M239.769,221.666a6.742,6.742,0,0,1,3.442-5.993q3.442-2.168,10.156-2.338c.027-.311.048-.573.062-.786s.023-.474.023-.786a4.024,4.024,0,0,0-.51-2.167,2.34,2.34,0,0,0-2.125-.809,3.481,3.481,0,0,0-1.445.256,2.332,2.332,0,0,0-.892.7,3.705,3.705,0,0,0-.552,1.083,13.817,13.817,0,0,0-.384,1.4.608.608,0,0,1-.382.488,2.982,2.982,0,0,1-.934.106q-4.336,0-4.336-3.271a5.405,5.405,0,0,1,.616-2.508,5.876,5.876,0,0,1,1.829-2.06,9.589,9.589,0,0,1,3.037-1.381,15.914,15.914,0,0,1,4.25-.51q4.718,0,6.842,1.955a7.13,7.13,0,0,1,2.125,5.523c0,.314-.036.872-.106,1.679s-.157,1.658-.256,2.55-.184,1.735-.254,2.529-.106,1.346-.106,1.657a2.321,2.321,0,0,0,.382,1.509,2,2,0,0,0,.871.616,7.9,7.9,0,0,0,.872.254.416.416,0,0,1,.382.425,7.578,7.578,0,0,1-.256,1.912,5.383,5.383,0,0,1-.828,1.784,4.246,4.246,0,0,1-1.573,1.318,5.322,5.322,0,0,1-2.443.51,4.269,4.269,0,0,1-3.06-.977,4.964,4.964,0,0,1-1.359-2.72,9.864,9.864,0,0,1-2.656,2.593,7.51,7.51,0,0,1-4.271,1.1,9.336,9.336,0,0,1-2.4-.3,5.064,5.064,0,0,1-1.954-.977,4.773,4.773,0,0,1-1.317-1.764A6.3,6.3,0,0,1,239.769,221.666Zm13.215-4.845a13.711,13.711,0,0,0-2.167.17,7.792,7.792,0,0,0-1.891.532,3.653,3.653,0,0,0-1.339.955,2.151,2.151,0,0,0-.51,1.445,1.467,1.467,0,0,0,.616,1.359,2.479,2.479,0,0,0,1.339.384,3.4,3.4,0,0,0,2.57-1.213,5.752,5.752,0,0,0,.914-1.509A6.531,6.531,0,0,0,252.984,216.822Z" transform="translate(-188.521 -191.664)" fill="#fff"/>
      <path id="Trazado_7295" data-name="Trazado 7295" d="M264.213,229.24a4.624,4.624,0,0,1-3.783-1.4q-1.147-1.4-1.147-4.633c0-.339.02-.764.063-1.274s.1-1.168.171-1.976.161-1.807.276-3,.233-2.635.361-4.335.268-3.7.425-5.991.318-4.958.488-7.99a2.116,2.116,0,0,1,.213-1.1,1.108,1.108,0,0,1,.68-.128h1.657a6.531,6.531,0,0,1,2.126.3,3.528,3.528,0,0,1,1.358.809,2.877,2.877,0,0,1,.723,1.168,4.437,4.437,0,0,1,.214,1.381q0,.85-.106,2.444t-.277,3.589q-.172,2-.34,4.165t-.339,4.144q-.17,1.976-.277,3.549t-.106,2.381a2.4,2.4,0,0,0,.405,1.572,2.31,2.31,0,0,0,.871.658,3.867,3.867,0,0,0,.871.254c.269.043.405.136.405.276a8.223,8.223,0,0,1-.213,1.849,4.438,4.438,0,0,1-.766,1.658,3.865,3.865,0,0,1-1.509,1.19A5.791,5.791,0,0,1,264.213,229.24Z" transform="translate(-181.773 -193.629)" fill="#fff"/>
      <path id="Trazado_7296" data-name="Trazado 7296" d="M268.662,224.6a6.741,6.741,0,0,1,3.441-5.993q3.442-2.168,10.156-2.338c.028-.311.048-.573.063-.786s.023-.474.023-.786a4.023,4.023,0,0,0-.51-2.167,2.341,2.341,0,0,0-2.125-.809,3.488,3.488,0,0,0-1.447.256,2.342,2.342,0,0,0-.892.7,3.739,3.739,0,0,0-.552,1.083,14.189,14.189,0,0,0-.382,1.4.61.61,0,0,1-.382.488,2.992,2.992,0,0,1-.935.106q-4.334,0-4.335-3.271a5.389,5.389,0,0,1,.616-2.508,5.872,5.872,0,0,1,1.828-2.06,9.611,9.611,0,0,1,3.039-1.381,15.9,15.9,0,0,1,4.249-.51q4.717,0,6.842,1.955a7.125,7.125,0,0,1,2.125,5.523c0,.314-.035.872-.106,1.679s-.156,1.658-.254,2.55-.184,1.735-.256,2.529-.106,1.346-.106,1.657a2.329,2.329,0,0,0,.382,1.509,2.013,2.013,0,0,0,.872.616,7.977,7.977,0,0,0,.871.254.415.415,0,0,1,.382.425,7.575,7.575,0,0,1-.254,1.912,5.383,5.383,0,0,1-.828,1.784,4.246,4.246,0,0,1-1.573,1.318,5.328,5.328,0,0,1-2.444.51,4.268,4.268,0,0,1-3.059-.977,4.956,4.956,0,0,1-1.361-2.72,9.878,9.878,0,0,1-2.655,2.593,7.513,7.513,0,0,1-4.271,1.1,9.329,9.329,0,0,1-2.4-.3,5.079,5.079,0,0,1-1.955-.977,4.755,4.755,0,0,1-1.316-1.764A6.3,6.3,0,0,1,268.662,224.6Zm13.215-4.845a13.7,13.7,0,0,0-2.167.17,7.787,7.787,0,0,0-1.892.532,3.653,3.653,0,0,0-1.339.955,2.151,2.151,0,0,0-.51,1.445,1.47,1.47,0,0,0,.616,1.359,2.486,2.486,0,0,0,1.339.384,3.409,3.409,0,0,0,2.572-1.213,5.751,5.751,0,0,0,.912-1.509A6.5,6.5,0,0,0,281.877,219.758ZM280.9,203.7a1.317,1.317,0,0,1-.658-.214,3.914,3.914,0,0,1-.7-.53,3.592,3.592,0,0,1-.575-.68,1.2,1.2,0,0,1-.234-.616,3.417,3.417,0,0,1,.425-.723q.424-.638,1.063-1.572t1.4-2.041q.763-1.1,1.444-2.082a2.217,2.217,0,0,1,.425-.51.934.934,0,0,1,.552-.127,4.6,4.6,0,0,1,1.317.254,10.638,10.638,0,0,1,1.573.638,7.1,7.1,0,0,1,1.316.829,1.186,1.186,0,0,1,.553.828,1.748,1.748,0,0,1-.489.892,14.956,14.956,0,0,1-1.253,1.319q-.765.721-1.7,1.486t-1.828,1.4q-.892.64-1.593,1.043A2.447,2.447,0,0,1,280.9,203.7Z" transform="translate(-178.531 -194.601)" fill="#fff"/>
    </g>
    <g id="Grupo_1335" data-name="Grupo 1335" transform="translate(177.344 189.745)">
      <path id="Trazado_7297" data-name="Trazado 7297" d="M184.24,207.732a6.747,6.747,0,0,0-2.526,7.909,10.332,10.332,0,0,1,.612,2.066,2.084,2.084,0,0,1-1.5,2.535c3.231,1.949,9.51,2.294,12.571-1.877a7.752,7.752,0,0,0-.7-9.992A6.86,6.86,0,0,0,184.24,207.732Z" transform="translate(-176.14 -183.928)" fill="none"/>
      <path id="Trazado_7298" data-name="Trazado 7298" d="M185.547,203.084l.007.005c-7.528,2.515-10.269,11.046-5.442,17.661a14.669,14.669,0,0,0-1.969,1.1c-.981.75-.988,1.34-.106,2.195a14.03,14.03,0,0,0,6.416,3.292,13.878,13.878,0,0,0,8.734-.172,12.4,12.4,0,0,0,8.139-9.958,26.007,26.007,0,0,0,.353-2.717l0-.03C198.816,202.5,190.873,201.943,185.547,203.084Zm9.039,16.627c-3.06,4.172-9.339,3.826-12.571,1.877a2.084,2.084,0,0,0,1.5-2.535,10.33,10.33,0,0,0-.612-2.066,6.747,6.747,0,0,1,2.526-7.909,6.86,6.86,0,0,1,8.461.641A7.752,7.752,0,0,1,194.586,219.711Z" transform="translate(-177.328 -185.274)" fill="#ff9e00"/>
      <path id="Trazado_7299" data-name="Trazado 7299" d="M190.324,203.858q-4.873-4.774-9.743-9.553c-1.393-1.367-2.581-1.036-3.107.877a2.916,2.916,0,0,0,.437,2.617c.825,1.091,1.716,2.137,2.621,3.164,1.417,1.607,2.865,3.185,4.313,4.765a5.2,5.2,0,0,0,.717.538,14.694,14.694,0,0,1,7.842.288l-2.632-2.329C190.562,204.059,190.433,203.965,190.324,203.858Z" transform="translate(-177.344 -188.457)" fill="#ff9e00"/>
      <path id="Trazado_7300" data-name="Trazado 7300" d="M194.166,204.641q-2.759-6.712-5.518-13.424a7.607,7.607,0,0,0-.328-.723,1.183,1.183,0,0,0-1.749-.571,3.423,3.423,0,0,0-1.918,3.363,11.847,11.847,0,0,0,.491,2.468c.978,3.071,2.011,6.126,3.021,9.189.05.152.082.311.167.638l-.082-.067,2.578,2.311a11.364,11.364,0,0,1,6.064,5.207l-2.285-7.368C194.4,205.191,194.28,204.918,194.166,204.641Z" transform="translate(-174.822 -189.745)" fill="#ffad00"/>
      <path id="Trazado_7301" data-name="Trazado 7301" d="M196.706,191.337a3.093,3.093,0,0,0-2.725,2.354,26.714,26.714,0,0,0-.634,3.181c-.409,2.543-.786,5.091-1.176,7.636-.02.132-.052.261-.125.616l2.285,7.368a21.218,21.218,0,0,1,2.282,5.9q.975-12.659,1.926-25.319C198.641,191.713,198.064,191.157,196.706,191.337Z" transform="translate(-172.261 -189.206)" fill="#ffbc00"/>
    </g>
  </g>
</svg>
